<svg version="1.1" id="Layer_1" xmlns="http://www.w3.org/2000/svg" xmlns:xlink="http://www.w3.org/1999/xlink" x="0px" y="0px"
	 width="100%" viewBox="0 0 150 150" enable-background="new 0 0 150 150" xml:space="preserve">
<path fill="#FEFCFB" opacity="1.000000" stroke="none" 
	d="
M1.000000,129.000000 
	C1.000000,86.374283 1.000000,43.748562 1.000000,1.061420 
	C50.911003,1.061420 100.822098,1.061420 150.866608,1.061420 
	C150.866608,50.999752 150.866608,100.999825 150.866608,151.000000 
	C141.919922,151.000000 132.928619,151.000000 123.504158,150.653275 
	C124.225159,148.955811 125.239304,147.445297 126.561600,146.286407 
	C129.647186,143.582199 132.900101,141.069977 136.048965,138.436630 
	C138.932816,136.024918 138.355942,133.424774 135.289108,132.305664 
	C130.284821,130.479584 124.990562,129.448166 119.609375,128.055786 
	C119.400093,128.030136 118.979256,127.995712 118.916580,127.615593 
	C118.370102,125.522224 117.886307,123.808968 117.558487,121.756485 
	C117.735306,120.926125 117.756157,120.434990 117.965851,119.643646 
	C118.482117,118.244125 118.809532,117.144829 119.480743,115.960510 
	C121.416496,111.476013 123.924538,107.172356 124.396896,102.655785 
	C125.211403,94.867706 125.547333,86.852814 124.619118,79.108696 
	C123.682159,71.291641 121.028389,63.671223 119.010551,55.995197 
	C116.558647,46.667908 114.056122,37.352058 111.377380,28.088547 
	C111.030258,26.888128 109.501434,26.029421 108.394691,24.634439 
	C107.188683,17.937286 102.379120,18.883152 97.842194,18.676567 
	C93.014542,15.516912 87.728226,15.680882 82.570549,15.373086 
	C78.506027,15.130527 74.408821,14.936465 70.353134,15.176681 
	C65.739685,15.449933 61.138821,16.127298 56.579025,16.902672 
	C55.915997,17.015417 55.511700,18.649715 54.539894,19.639610 
	C52.143848,19.752790 50.194347,19.778526 48.247627,19.866117 
	C45.076366,20.008804 43.466785,21.565552 43.555893,25.092213 
	C42.817638,26.883516 42.313770,28.426590 41.933468,29.999542 
	C41.136143,33.297325 40.403835,36.610825 39.346458,40.074753 
	C37.041256,44.029518 33.924213,47.643223 33.257263,51.663395 
	C31.841322,60.198280 31.810862,68.955246 30.987614,77.599762 
	C30.618887,81.471596 29.438868,85.271049 29.140221,89.142937 
	C28.941223,91.722870 29.648979,94.372749 29.656719,97.034973 
	C29.064268,97.496223 28.766005,97.913818 28.467743,98.331421 
	C28.992435,98.547539 29.517130,98.763657 30.317137,99.252403 
	C31.408463,102.678505 32.224476,105.831978 32.782593,109.194298 
	C34.015236,112.269188 35.505775,115.135231 37.126625,118.288300 
	C37.522434,119.357841 37.787933,120.140366 38.000835,121.299149 
	C36.354458,123.102417 34.891994,125.565529 33.145409,125.786888 
	C22.466072,127.140404 11.722299,127.985481 1.000000,129.000000 
z"/>
<path fill="#FBF7F3" opacity="1.000000" stroke="none" 
	d="
M1.000000,129.449982 
	C11.722299,127.985481 22.466072,127.140404 33.145409,125.786888 
	C34.891994,125.565529 36.354458,123.102417 38.305740,121.478745 
	C39.747120,123.233688 40.830986,125.185287 41.749443,127.452377 
	C40.523048,128.494370 39.533947,129.684509 38.387886,129.862183 
	C34.656250,130.440704 30.854216,130.547134 27.103680,131.026291 
	C22.542112,131.609055 17.970821,132.232071 13.493399,133.237122 
	C12.786356,133.395828 12.551927,135.659973 12.098982,136.950653 
	C18.399958,137.970459 24.700933,138.990265 31.404442,140.008728 
	C32.880402,139.995270 33.953831,139.983139 35.269234,139.981720 
	C35.511211,139.992432 35.994450,140.026352 36.001266,140.389221 
	C36.605877,141.629822 37.109932,142.593094 37.818604,143.369644 
	C40.172752,145.949295 42.600487,148.461761 45.000000,151.000000 
	C42.299988,151.000000 39.599972,151.000000 36.410408,150.646576 
	C32.105083,148.214661 28.492548,145.508926 24.429838,144.192566 
	C16.756636,141.706345 8.824516,140.019211 1.000001,138.000000 
	C1.000000,135.299988 1.000000,132.599976 1.000000,129.449982 
z"/>
<path fill="#F9F2EB" opacity="1.000000" stroke="none" 
	d="
M45.468658,151.000000 
	C42.600487,148.461761 40.172752,145.949295 37.818604,143.369644 
	C37.109932,142.593094 36.605877,141.629822 36.365448,140.530121 
	C38.810280,140.572968 40.897743,140.837784 42.995277,141.465454 
	C44.557770,143.565750 45.890163,146.486099 47.703049,146.823318 
	C53.612915,147.922623 59.699692,148.504364 65.715591,148.483276 
	C72.284187,148.460266 79.024849,146.354156 85.376099,147.289948 
	C95.320457,148.755127 104.326797,146.185532 113.472946,143.563858 
	C114.873749,143.162338 115.832520,141.218689 117.239326,139.984833 
	C117.482933,139.981415 117.970177,139.981689 118.296173,139.946533 
	C119.074760,139.263580 119.527344,138.615768 120.129395,137.633453 
	C120.052345,135.807770 119.825829,134.316635 119.651749,132.599152 
	C119.704178,132.372803 119.982239,132.000519 120.350128,132.004639 
	C122.542290,133.131653 124.366554,134.254547 126.046539,135.288651 
	C120.329704,145.620224 111.863525,149.169373 101.343399,149.094131 
	C99.900215,149.083801 98.448021,150.333618 97.000000,151.000000 
	C79.979103,151.000000 62.958210,151.000000 45.468658,151.000000 
z"/>
<path fill="#FBF7F2" opacity="1.000000" stroke="none" 
	d="
M97.468651,151.000000 
	C98.448021,150.333618 99.900215,149.083801 101.343399,149.094131 
	C111.863525,149.169373 120.329704,145.620224 126.046539,135.288651 
	C124.366554,134.254547 122.542290,133.131653 120.295975,131.765900 
	C119.873917,131.523071 119.751007,131.049179 119.836655,130.684845 
	C119.887749,129.574173 119.853195,128.827805 119.818649,128.081451 
	C124.990562,129.448166 130.284821,130.479584 135.289108,132.305664 
	C138.355942,133.424774 138.932816,136.024918 136.048965,138.436630 
	C132.900101,141.069977 129.647186,143.582199 126.561600,146.286407 
	C125.239304,147.445297 124.225159,148.955811 123.035500,150.653275 
	C114.645767,151.000000 106.291534,151.000000 97.468651,151.000000 
z"/>
<path fill="#FDFAF8" opacity="1.000000" stroke="none" 
	d="
M1.000001,138.476654 
	C8.824516,140.019211 16.756636,141.706345 24.429838,144.192566 
	C28.492548,145.508926 32.105083,148.214661 35.960426,150.646576 
	C24.444677,151.000000 12.889354,151.000000 1.000000,151.000000 
	C1.000000,146.990616 1.000000,142.971970 1.000001,138.476654 
z"/>
<path fill="#FBE4C3" opacity="1.000000" stroke="none" 
	d="
M41.914856,127.136894 
	C40.830986,125.185287 39.747120,123.233688 38.358345,121.102478 
	C37.787933,120.140366 37.522434,119.357841 37.129791,117.916168 
	C35.681931,114.499825 34.361210,111.742638 33.040489,108.985451 
	C32.224476,105.831978 31.408463,102.678505 30.307940,98.920990 
	C29.999256,97.875076 29.975082,97.433197 29.950905,96.991318 
	C29.648979,94.372749 28.941223,91.722870 29.140221,89.142937 
	C29.438868,85.271049 30.618887,81.471596 30.987614,77.599762 
	C31.810862,68.955246 31.841322,60.198280 33.257263,51.663395 
	C33.924213,47.643223 37.041256,44.029518 39.394753,40.409004 
	C40.068089,41.638023 40.394753,42.689678 40.382904,43.859215 
	C38.708946,48.324821 36.970329,52.595837 36.125374,57.036877 
	C34.561237,65.257919 33.340721,73.556061 32.303909,81.862885 
	C30.826975,93.695946 33.997677,104.737114 38.730530,115.418373 
	C39.608418,117.399612 40.809853,119.237473 41.937183,121.495911 
	C42.413338,123.248177 42.814274,124.646034 43.144463,126.283188 
	C43.073723,126.522484 42.970997,127.010864 42.707195,127.044334 
	C42.267212,127.097504 42.091034,127.117203 41.914856,127.136894 
z"/>
<path fill="#FCECD4" opacity="1.000000" stroke="none" 
	d="
M108.519989,25.012428 
	C109.501434,26.029421 111.030258,26.888128 111.377380,28.088547 
	C114.056122,37.352058 116.558647,46.667908 119.010551,55.995197 
	C121.028389,63.671223 123.682159,71.291641 124.619118,79.108696 
	C125.547333,86.852814 125.211403,94.867706 124.396896,102.655785 
	C123.924538,107.172356 121.416496,111.476013 119.413696,115.621475 
	C118.702393,114.280487 118.401924,113.193504 118.455490,112.016258 
	C119.217102,111.446571 119.809685,111.032211 120.004623,110.477989 
	C123.145866,101.547165 123.525345,92.296463 122.714394,83.002090 
	C122.532272,80.914818 120.973976,78.947617 120.022484,76.701233 
	C119.995750,76.477325 119.925186,76.030685 119.956543,75.628502 
	C119.300079,70.093094 118.970284,64.878029 117.821091,59.850258 
	C116.729637,55.075150 114.780899,50.495998 112.985367,45.767654 
	C112.761620,45.704624 112.296837,45.715786 112.083527,45.556660 
	C111.611694,43.926662 111.353165,42.455791 111.049965,40.750244 
	C111.005287,40.515564 111.025597,40.038216 111.253662,39.968620 
	C111.317863,39.605911 111.154007,39.312801 110.881516,38.747936 
	C110.456665,37.986687 110.140434,37.497200 109.851120,36.750793 
	C109.821068,36.331360 109.764091,36.168842 109.771164,35.613319 
	C109.779976,34.168365 109.724731,33.116409 109.742561,31.699875 
	C109.194382,29.223101 108.573128,27.110905 108.093613,25.014265 
	C108.235344,25.029821 108.519989,25.012428 108.519989,25.012428 
z"/>
<path fill="#FDE2BB" opacity="1.000000" stroke="none" 
	d="
M54.987679,19.579941 
	C55.511700,18.649715 55.915997,17.015417 56.579025,16.902672 
	C61.138821,16.127298 65.739685,15.449933 70.353134,15.176681 
	C74.408821,14.936465 78.506027,15.130527 82.570549,15.373086 
	C87.728226,15.680882 93.014542,15.516912 97.678040,18.932793 
	C96.779900,19.986662 95.886162,20.474291 94.662971,20.790848 
	C89.371239,19.785341 84.426201,18.819023 79.440048,18.167192 
	C76.565079,17.791351 73.566292,17.517746 70.725197,17.919369 
	C66.088997,18.574749 61.536144,19.819735 56.633018,20.824566 
	C55.903080,20.769686 55.488247,20.706190 55.058220,20.376503 
	C55.024574,19.933517 55.006126,19.756727 54.987679,19.579941 
z"/>
<path fill="#E09131" opacity="1.000000" stroke="none" 
	d="
M40.721416,43.741329 
	C40.394753,42.689678 40.068089,41.638023 39.693130,40.252121 
	C40.403835,36.610825 41.136143,33.297325 41.933468,29.999542 
	C42.313770,28.426590 42.817638,26.883516 43.852711,25.223488 
	C45.597401,26.046476 46.754917,26.972885 47.973663,27.941002 
	C48.034893,27.982712 48.153999,28.068146 48.104309,28.449846 
	C47.176456,31.065401 46.388481,33.340927 45.383450,35.516159 
	C44.852192,36.665989 43.943012,37.641209 43.204453,38.695255 
	C44.464588,39.135891 45.724720,39.576527 46.988003,40.390686 
	C46.994728,41.511261 46.998302,42.258312 46.891243,43.221703 
	C46.580296,43.707123 46.320961,43.894527 45.670982,44.001484 
	C44.578110,44.316280 43.816853,44.629856 42.731453,44.950203 
	C41.976582,44.952942 41.545845,44.948910 41.041389,44.635906 
	C40.885582,44.131737 40.803497,43.936531 40.721416,43.741329 
z"/>
<path fill="#F4BC63" opacity="1.000000" stroke="none" 
	d="
M118.101456,112.106514 
	C118.401924,113.193504 118.702393,114.280487 119.069901,115.706505 
	C118.809532,117.144829 118.482117,118.244125 117.729340,119.357780 
	C116.904274,117.595627 116.504555,115.819122 116.104843,114.042618 
	C115.573738,114.089363 115.042633,114.136116 114.511528,114.182869 
	C114.336258,115.780655 114.160988,117.378448 113.874191,119.195709 
	C113.560280,119.688538 113.297401,119.877945 112.590263,119.974731 
	C111.535316,118.930450 110.408989,117.939796 110.301186,116.848534 
	C110.145256,115.270027 110.726875,113.618660 111.237228,111.822876 
	C111.650452,109.441628 111.820297,107.235870 112.176773,104.780861 
	C113.914375,105.016708 115.465347,105.501816 117.299828,106.254951 
	C117.756035,108.384155 117.928741,110.245338 118.101456,112.106514 
z"/>
<path fill="#F4B658" opacity="1.000000" stroke="none" 
	d="
M94.992424,20.961918 
	C95.886162,20.474291 96.779900,19.986662 97.837791,19.242807 
	C102.379120,18.883152 107.188683,17.937286 108.394691,24.634438 
	C108.519989,25.012428 108.235344,25.029821 107.739494,25.017513 
	C105.526085,25.971569 103.808517,26.937929 101.976456,27.550625 
	C99.246628,26.459396 96.631294,25.721830 94.014626,24.653843 
	C94.011826,23.880632 94.010361,23.437845 94.252953,22.821976 
	C94.662148,22.086567 94.827286,21.524242 94.992424,20.961918 
z"/>
<path fill="#FBC369" opacity="1.000000" stroke="none" 
	d="
M47.912430,27.899296 
	C46.754917,26.972885 45.597401,26.046476 44.143066,24.988792 
	C43.466785,21.565552 45.076366,20.008804 48.247627,19.866117 
	C50.194347,19.778526 52.143848,19.752790 54.539890,19.639608 
	C55.006126,19.756727 55.024574,19.933517 54.939934,20.728142 
	C54.219955,22.869553 53.603069,24.393131 52.617264,25.940065 
	C50.803036,26.608713 49.357735,27.254004 47.912430,27.899296 
z"/>
<path fill="#E0942F" opacity="1.000000" stroke="none" 
	d="
M112.974030,119.983406 
	C113.297401,119.877945 113.560280,119.688538 114.192825,119.247025 
	C115.549492,120.084488 116.475998,121.090103 117.402512,122.095718 
	C117.886307,123.808968 118.370102,125.522224 118.667313,127.802162 
	C118.904152,129.262299 119.327583,130.155731 119.751007,131.049179 
	C119.751007,131.049179 119.873917,131.523071 119.928078,131.761795 
	C119.982239,132.000519 119.704178,132.372803 119.369858,132.663452 
	C118.342239,133.244736 117.648941,133.535385 116.916885,133.463089 
	C116.258087,131.107758 115.852661,129.004822 114.911766,127.177635 
	C114.538353,126.452469 112.977142,126.338943 111.968109,125.562897 
	C112.311005,123.447037 112.642517,121.715218 112.974030,119.983406 
z"/>
<path fill="#EEAF51" opacity="1.000000" stroke="none" 
	d="
M117.558487,121.756485 
	C116.475998,121.090103 115.549492,120.084488 114.304352,119.027557 
	C114.160988,117.378448 114.336258,115.780655 114.511528,114.182869 
	C115.042633,114.136116 115.573738,114.089363 116.104843,114.042618 
	C116.504555,115.819122 116.904274,117.595627 117.540497,119.657990 
	C117.756157,120.434990 117.735306,120.926125 117.558487,121.756485 
z"/>
<path fill="#FBF7F3" opacity="1.000000" stroke="none" 
	d="
M32.782593,109.194298 
	C34.361210,111.742638 35.681931,114.499825 36.999481,117.629150 
	C35.505775,115.135231 34.015236,112.269188 32.782593,109.194298 
z"/>
<path fill="#EEAF51" opacity="1.000000" stroke="none" 
	d="
M119.836655,130.684845 
	C119.327583,130.155731 118.904152,129.262299 118.729996,128.182281 
	C118.979256,127.995712 119.400093,128.030136 119.609367,128.055786 
	C119.853195,128.827805 119.887749,129.574173 119.836655,130.684845 
z"/>
<path fill="#FBF7F3" opacity="1.000000" stroke="none" 
	d="
M29.656719,97.034973 
	C29.975082,97.433197 29.999256,97.875076 30.032627,98.648361 
	C29.517130,98.763657 28.992435,98.547539 28.467743,98.331421 
	C28.766005,97.913818 29.064268,97.496223 29.656719,97.034973 
z"/>
<path fill="#F8F0E7" opacity="1.000000" stroke="none" 
	d="
M41.749443,127.452377 
	C42.091034,127.117203 42.267212,127.097504 42.971016,127.235077 
	C43.634815,128.937866 43.771000,130.483383 43.691978,132.030182 
	C43.476772,132.031479 43.046448,132.040451 42.625069,132.038101 
	C38.922565,132.393982 35.571564,132.455139 32.382641,133.205307 
	C29.873547,133.795532 27.564398,135.235733 25.166435,136.298386 
	C27.111593,137.535614 29.056753,138.772842 31.001911,140.010071 
	C24.700933,138.990265 18.399958,137.970459 12.098982,136.950653 
	C12.551927,135.659973 12.786356,133.395828 13.493399,133.237122 
	C17.970821,132.232071 22.542112,131.609055 27.103680,131.026291 
	C30.854216,130.547134 34.656250,130.440704 38.387886,129.862183 
	C39.533947,129.684509 40.523048,128.494370 41.749443,127.452377 
z"/>
<path fill="#F3E6D7" opacity="1.000000" stroke="none" 
	d="
M31.404442,140.008728 
	C29.056753,138.772842 27.111593,137.535614 25.166435,136.298386 
	C27.564398,135.235733 29.873547,133.795532 32.382641,133.205307 
	C35.571564,132.455139 38.922565,132.393982 42.601540,132.418884 
	C41.682041,133.699005 40.239792,134.460098 39.078766,135.527191 
	C37.608669,136.878342 36.367279,138.478348 35.027256,139.971024 
	C33.953831,139.983139 32.880402,139.995270 31.404442,140.008728 
z"/>
<path fill="#ECD5B9" opacity="1.000000" stroke="none" 
	d="
M35.269234,139.981720 
	C36.367279,138.478348 37.608669,136.878342 39.078766,135.527191 
	C40.239792,134.460098 41.682041,133.699005 43.022923,132.421234 
	C43.046448,132.040451 43.476772,132.031479 43.763992,131.959854 
	C44.051208,131.888229 44.252472,131.892807 44.302525,132.295090 
	C44.558334,135.472809 44.764088,138.248245 44.639465,141.045395 
	C43.867794,141.078949 43.426502,141.090775 42.985210,141.102615 
	C40.897743,140.837784 38.810280,140.572968 36.358631,140.167236 
	C35.994450,140.026352 35.511211,139.992432 35.269234,139.981720 
z"/>
<path fill="#F8EFE5" opacity="1.000000" stroke="none" 
	d="
M42.995277,141.465454 
	C43.426502,141.090775 43.867794,141.078949 44.969414,141.101562 
	C46.067497,141.221771 46.505245,141.307510 47.017052,141.675552 
	C48.032612,142.062332 48.974117,142.166794 50.177757,142.228745 
	C50.609123,142.134247 50.778358,142.082275 51.210434,142.129639 
	C51.652500,142.282303 51.831722,142.335602 52.078701,142.743835 
	C56.118889,143.889206 60.059731,144.979050 64.070908,145.402237 
	C70.643906,146.095688 76.918571,142.828552 83.890862,144.641235 
	C88.667130,145.882965 94.557472,146.273026 99.393890,142.015656 
	C101.645134,141.307129 103.522789,140.672501 105.716148,140.243942 
	C109.686470,140.296112 113.341103,140.142197 116.995728,139.988281 
	C115.832520,141.218689 114.873749,143.162338 113.472946,143.563858 
	C104.326797,146.185532 95.320457,148.755127 85.376099,147.289948 
	C79.024849,146.354156 72.284187,148.460266 65.715591,148.483276 
	C59.699692,148.504364 53.612915,147.922623 47.703049,146.823318 
	C45.890163,146.486099 44.557770,143.565750 42.995277,141.465454 
z"/>
<path fill="#F1E0CE" opacity="1.000000" stroke="none" 
	d="
M117.239334,139.984848 
	C113.341103,140.142197 109.686470,140.296112 105.749344,139.935303 
	C105.523720,139.010040 105.580582,138.599518 105.921188,138.109100 
	C106.806801,136.967499 107.408684,135.905762 108.415970,134.867538 
	C111.532799,134.536026 114.244217,134.181015 116.955635,133.826019 
	C117.648941,133.535385 118.342239,133.244736 119.317429,132.889786 
	C119.825829,134.316635 120.052345,135.807770 119.811188,137.682983 
	C118.885727,138.705261 118.427956,139.343475 117.970184,139.981689 
	C117.970177,139.981689 117.482933,139.981415 117.239334,139.984848 
z"/>
<path fill="#F8EFE5" opacity="1.000000" stroke="none" 
	d="
M118.296181,139.946533 
	C118.427956,139.343475 118.885727,138.705261 119.661720,138.017517 
	C119.527344,138.615768 119.074760,139.263580 118.296181,139.946533 
z"/>
<path fill="#F5BD64" opacity="1.000000" stroke="none" 
	d="
M40.382904,43.859215 
	C40.803497,43.936531 40.885582,44.131737 41.004974,45.027283 
	C41.345699,47.482433 41.649120,49.237244 41.706608,51.197445 
	C41.953548,52.288967 42.446423,53.175095 42.944443,54.377125 
	C42.952961,55.114285 42.956326,55.535538 42.609741,56.027554 
	C40.394470,57.989601 38.108517,59.860767 42.307743,62.036404 
	C43.081093,62.062138 43.522972,62.077724 43.963539,62.483715 
	C43.606102,65.216232 43.249973,67.558350 42.542984,69.922440 
	C39.695324,72.082039 39.891418,72.389702 46.341473,75.442451 
	C44.218250,76.104118 42.723671,76.447495 41.333004,77.036293 
	C39.821606,77.676216 38.406811,78.544296 36.844288,79.368607 
	C38.166248,81.322502 39.041431,82.616051 39.560024,83.935623 
	C32.742657,85.794807 38.204445,87.727455 38.358921,88.288628 
	C41.610104,89.037292 43.836632,89.550003 45.873112,90.283112 
	C45.141159,90.684685 44.599255,90.865860 43.704910,91.059822 
	C41.902428,92.232071 40.452389,93.391541 38.500648,94.952179 
	C40.487583,95.780998 41.601135,96.245499 42.949093,96.807785 
	C41.882221,98.451767 41.034683,99.757774 39.306599,102.420647 
	C43.087391,101.800323 45.544563,101.397171 48.252602,100.997879 
	C48.670731,101.000336 48.837997,100.998947 49.002327,101.369751 
	C48.988602,102.485435 48.977814,103.228920 48.606365,104.009293 
	C39.927094,107.660614 39.959888,107.654228 41.731529,116.748268 
	C42.007977,118.167297 41.829876,119.674873 41.861965,121.141510 
	C40.809853,119.237473 39.608418,117.399612 38.730530,115.418373 
	C33.997677,104.737114 30.826975,93.695946 32.303909,81.862885 
	C33.340721,73.556061 34.561237,65.257919 36.125374,57.036877 
	C36.970329,52.595837 38.708946,48.324821 40.382904,43.859215 
z"/>
<path fill="#E39C38" opacity="1.000000" stroke="none" 
	d="
M41.937183,121.495911 
	C41.829876,119.674873 42.007977,118.167297 41.731529,116.748268 
	C39.959888,107.654228 39.927094,107.660614 49.032825,104.021744 
	C52.880230,103.998810 55.940521,104.000320 59.323715,103.974686 
	C60.434929,103.287323 61.223228,102.627098 62.397034,101.978607 
	C63.851227,104.328941 64.919914,106.667557 65.626785,109.007515 
	C64.781418,109.039711 64.297874,109.070557 63.469261,109.059441 
	C62.429646,109.032791 61.735088,109.048103 60.730293,108.903450 
	C56.773415,105.391350 54.111683,109.365417 50.600880,110.004410 
	C48.329338,110.711487 46.459206,111.423729 44.589077,112.135971 
	C45.394543,113.763847 45.967567,115.570740 47.054371,116.981949 
	C49.246078,119.827850 47.450569,124.288460 43.215210,126.043900 
	C42.814274,124.646034 42.413338,123.248177 41.937183,121.495911 
M45.486126,118.590599 
	C45.486126,118.590599 45.417824,118.477592 45.486126,118.590599 
z"/>
<path fill="#DB8A21" opacity="1.000000" stroke="none" 
	d="
M43.144466,126.283188 
	C47.450569,124.288460 49.246078,119.827850 47.054371,116.981949 
	C45.967567,115.570740 45.394543,113.763847 44.589077,112.135971 
	C46.459206,111.423729 48.329338,110.711487 50.568939,110.342651 
	C51.280098,113.455894 51.621788,116.225739 51.662430,119.042801 
	C51.113605,119.577095 50.551449,120.397194 50.663578,120.503044 
	C54.497868,124.122810 51.982445,125.954903 48.879128,128.042358 
	C47.853897,128.731995 47.632915,130.617264 47.031288,131.968765 
	C47.018372,131.981689 46.992519,132.007843 46.649246,132.003418 
	C45.621471,131.963593 44.936974,131.928192 44.252472,131.892807 
	C44.252472,131.892807 44.051208,131.888229 43.979195,131.958557 
	C43.771000,130.483383 43.634815,128.937866 43.234818,127.201614 
	C42.970997,127.010864 43.073723,126.522484 43.144466,126.283188 
z"/>
<path fill="#F5AD3C" opacity="1.000000" stroke="none" 
	d="
M111.094635,40.984921 
	C111.353165,42.455791 111.611694,43.926662 111.873322,45.884392 
	C110.359924,49.420029 106.068184,51.634590 108.983917,56.415405 
	C109.333229,58.881554 109.676529,60.946152 110.012497,63.254932 
	C110.005165,63.499111 109.989990,63.987453 109.571342,63.987434 
	C106.632156,63.772041 104.111626,63.556664 100.270569,63.228447 
	C102.073494,67.310059 103.552887,70.659241 104.679977,74.016678 
	C103.624260,74.045578 102.920845,74.066216 101.980209,73.801636 
	C98.134689,72.375114 94.526398,71.233803 90.544662,70.083458 
	C88.651993,70.585968 87.155846,71.371399 85.604538,71.502083 
	C84.732292,71.575554 83.768974,70.567848 83.143791,69.922226 
	C84.312691,68.894547 85.184486,67.991867 86.416428,67.004021 
	C87.140274,65.572365 87.503983,64.225876 88.178635,62.787170 
	C89.318672,62.465256 90.147758,62.235554 91.337875,61.951565 
	C92.149353,60.618507 92.599800,59.339737 93.028442,58.040482 
	C93.006645,58.019997 93.047775,58.051605 93.267365,58.064278 
	C93.486954,58.076954 93.926773,58.086159 94.308228,58.099041 
	C95.451813,58.100292 96.213943,58.088661 97.235931,58.339088 
	C98.619675,58.780159 99.742638,58.965168 100.867645,59.136761 
	C102.563965,59.395493 104.261711,59.644848 105.958855,59.898186 
	C105.737930,58.080837 105.520218,56.263096 105.294624,54.446327 
	C105.193909,53.635284 105.077377,52.826206 104.980713,51.613518 
	C106.641830,47.802673 108.290253,44.394554 110.227654,40.976322 
	C110.709297,40.972443 110.901970,40.978683 111.094635,40.984921 
z"/>
<path fill="#FAC363" opacity="1.000000" stroke="none" 
	d="
M108.977913,56.013859 
	C106.068184,51.634590 110.359924,49.420029 112.086624,46.043518 
	C112.296837,45.715786 112.761620,45.704624 112.918503,46.227905 
	C112.844276,52.269978 111.944786,57.867435 114.670959,63.171997 
	C111.449249,67.841957 114.711693,70.795387 117.262863,74.159317 
	C117.669640,74.887291 117.834969,75.443489 117.689270,76.160583 
	C117.182945,77.484444 116.689285,78.689087 116.844925,79.803024 
	C117.462677,84.224396 118.283310,88.617416 119.014343,93.011719 
	C118.999924,93.002502 119.023727,93.028946 118.631882,93.019348 
	C116.493263,93.673370 114.746475,94.336990 112.667030,94.853973 
	C110.212242,94.148468 108.090118,93.589592 105.620193,93.029556 
	C104.494843,92.975822 103.717300,92.923256 102.939758,92.870682 
	C102.896400,92.577942 102.853050,92.285202 102.809692,91.992455 
	C105.822189,91.310936 108.834679,90.629417 111.847168,89.947891 
	C111.845245,89.483025 111.843323,89.018150 111.841400,88.553284 
	C110.565918,88.007225 109.290443,87.461166 108.009651,86.554520 
	C108.009651,85.468987 108.014961,84.744064 108.350235,84.017296 
	C109.120132,84.010513 109.560066,84.005562 110.391968,84.001366 
	C112.020828,83.885307 113.257706,83.768486 114.474983,83.653526 
	C114.230972,77.771912 114.230972,77.771912 109.730415,75.874992 
	C108.976433,75.169395 108.487755,74.584389 108.000351,73.615120 
	C107.430550,71.450272 106.859482,69.669693 106.288422,67.889122 
	C106.740181,68.045349 107.191940,68.201584 107.643700,68.357819 
	C108.425797,66.901031 109.207893,65.444244 109.989990,63.987453 
	C109.989990,63.987453 110.005165,63.499111 110.354874,63.194572 
	C112.939766,59.892170 110.986610,57.946041 108.977913,56.013859 
z"/>
<path fill="#E48A16" opacity="1.000000" stroke="none" 
	d="
M111.049957,40.750244 
	C110.901970,40.978683 110.709297,40.972443 109.812332,40.980164 
	C107.490501,41.130077 105.857315,41.166954 104.258255,41.419727 
	C98.410301,42.344154 94.627617,40.703190 92.350891,35.970772 
	C94.534111,34.926849 96.373779,33.919189 98.572075,33.018707 
	C99.532021,34.584991 100.133331,36.044106 100.809311,37.684402 
	C102.305016,37.684402 103.873001,37.684402 105.660439,37.684402 
	C105.413597,36.242638 105.222794,35.128174 105.299698,33.809498 
	C106.934776,33.091671 108.302132,32.578060 109.669495,32.064453 
	C109.724731,33.116409 109.779976,34.168365 109.642502,35.722092 
	C109.574593,36.485142 109.699402,36.746426 109.824211,37.007710 
	C110.140434,37.497200 110.456665,37.986687 110.870834,39.003220 
	C110.987717,39.699577 111.006653,39.868896 111.025597,40.038216 
	C111.025597,40.038216 111.005287,40.515564 111.049957,40.750244 
M108.590401,38.517879 
	C108.590401,38.517879 108.481392,38.583229 108.590401,38.517879 
z"/>
<path fill="#FCD28C" opacity="1.000000" stroke="none" 
	d="
M118.455490,112.016258 
	C117.928741,110.245338 117.756035,108.384155 117.355583,105.905762 
	C120.378387,102.282104 118.527771,99.738152 116.473778,97.634949 
	C117.432457,95.903282 118.228088,94.466110 119.023727,93.028946 
	C119.023727,93.028946 118.999924,93.002502 119.404129,92.916931 
	C120.209358,91.372803 120.980957,89.903679 120.939697,88.457741 
	C120.829849,84.608200 120.369942,80.768654 120.049217,76.925133 
	C120.973976,78.947617 122.532272,80.914818 122.714394,83.002090 
	C123.525345,92.296463 123.145866,101.547165 120.004623,110.477989 
	C119.809685,111.032211 119.217102,111.446571 118.455490,112.016258 
z"/>
<path fill="#FCD28C" opacity="1.000000" stroke="none" 
	d="
M118.000305,75.999695 
	C117.834969,75.443489 117.669640,74.887291 117.260094,73.759109 
	C116.339867,69.791718 115.663841,66.396309 114.987823,63.000893 
	C111.944786,57.867435 112.844276,52.269978 113.142258,46.290932 
	C114.780899,50.495998 116.729637,55.075150 117.821091,59.850258 
	C118.970284,64.878029 119.300079,70.093094 119.636612,75.623291 
	C118.856979,76.013412 118.428642,76.006554 118.000305,75.999695 
z"/>
<path fill="#FBC971" opacity="1.000000" stroke="none" 
	d="
M117.689270,76.160583 
	C118.428642,76.006554 118.856979,76.013412 119.605255,76.025482 
	C119.925186,76.030685 119.995750,76.477325 120.022484,76.701233 
	C120.369942,80.768654 120.829849,84.608200 120.939697,88.457741 
	C120.980957,89.903679 120.209358,91.372803 119.418549,92.926147 
	C118.283310,88.617416 117.462677,84.224396 116.844925,79.803024 
	C116.689285,78.689087 117.182945,77.484444 117.689270,76.160583 
z"/>
<path fill="#E69A36" opacity="1.000000" stroke="none" 
	d="
M109.742569,31.699871 
	C108.302132,32.578060 106.934776,33.091671 105.028702,33.606529 
	C103.633392,31.774651 102.776794,29.941526 101.962097,28.056719 
	C102.003998,28.005035 102.090958,27.904293 102.090958,27.904293 
	C103.808517,26.937929 105.526085,25.971569 107.597763,25.001957 
	C108.573128,27.110905 109.194382,29.223101 109.742569,31.699871 
z"/>
<path fill="#F5AD3C" opacity="1.000000" stroke="none" 
	d="
M111.253662,39.968620 
	C111.006653,39.868896 110.987717,39.699577 110.979462,39.274979 
	C111.154007,39.312801 111.317863,39.605911 111.253662,39.968620 
z"/>
<path fill="#E69A36" opacity="1.000000" stroke="none" 
	d="
M109.851120,36.750793 
	C109.699402,36.746426 109.574593,36.485142 109.578445,36.115089 
	C109.764091,36.168842 109.821068,36.331360 109.851120,36.750793 
z"/>
<path fill="#FBC369" opacity="1.000000" stroke="none" 
	d="
M94.662971,20.790846 
	C94.827286,21.524242 94.662148,22.086567 93.919968,22.823599 
	C92.899841,23.005478 92.456741,23.012651 91.784378,22.734669 
	C89.360100,21.992298 87.165085,21.535082 84.518730,21.061134 
	C81.058655,21.069674 78.049927,21.094946 74.617111,21.085556 
	C68.968025,21.252037 63.743690,21.478212 58.517017,21.615120 
	C58.001381,21.628626 57.471432,21.095411 56.948124,20.815954 
	C61.536144,19.819735 66.088997,18.574749 70.725197,17.919369 
	C73.566292,17.517746 76.565079,17.791351 79.440048,18.167192 
	C84.426201,18.819023 89.371239,19.785341 94.662971,20.790846 
z"/>
<path fill="#F7AC3C" opacity="1.000000" stroke="none" 
	d="
M56.633018,20.824566 
	C57.471432,21.095411 58.001381,21.628626 58.517017,21.615120 
	C63.743690,21.478212 68.968025,21.252037 74.562996,21.382555 
	C74.284264,22.468386 73.635559,23.222553 72.622734,23.977543 
	C69.839005,23.652803 67.419388,23.327242 64.695099,23.221111 
	C61.929626,23.969244 59.468830,24.497946 56.683971,25.161121 
	C55.235336,25.502632 54.110760,25.709671 52.986183,25.916710 
	C53.603069,24.393131 54.219955,22.869553 54.955124,20.994333 
	C55.488247,20.706190 55.903080,20.769686 56.633018,20.824566 
z"/>
<path fill="#E78F1E" opacity="1.000000" stroke="none" 
	d="
M52.617264,25.940067 
	C54.110760,25.709671 55.235336,25.502632 56.718185,25.508238 
	C57.645302,26.689043 58.489166,28.567251 58.742310,28.490749 
	C63.628273,27.014200 62.575714,31.506365 63.502701,33.403118 
	C65.369911,32.772610 66.876343,32.263927 68.382782,31.755241 
	C68.920227,33.501919 69.457672,35.248592 69.623077,36.996624 
	C66.771873,37.661663 63.635033,33.655128 61.917648,37.368080 
	C60.768375,39.852776 61.238750,43.086624 60.607056,45.945320 
	C55.820454,44.938721 51.411163,43.972046 47.001877,43.005371 
	C46.998302,42.258312 46.994728,41.511261 47.140259,40.078655 
	C49.990425,37.038418 52.691483,34.683735 55.392540,32.329052 
	C55.267490,31.592623 55.142445,30.856195 55.017395,30.119766 
	C52.729599,29.435894 50.441799,28.752020 48.153999,28.068146 
	C48.153999,28.068146 48.034893,27.982712 47.973663,27.941004 
	C49.357735,27.254004 50.803036,26.608713 52.617264,25.940067 
z"/>
<path fill="#E48A16" opacity="1.000000" stroke="none" 
	d="
M46.891243,43.221706 
	C51.411163,43.972046 55.820454,44.938721 60.616913,45.954716 
	C61.004086,46.004036 61.022568,46.021980 61.001068,46.419174 
	C58.760494,52.133148 54.581650,46.651089 52.807030,47.784393 
	C51.063160,50.176884 50.031353,51.592461 48.993401,52.653538 
	C48.324093,51.532650 47.660931,50.766262 46.989559,49.673901 
	C46.977570,48.913174 46.973793,48.478420 46.978043,47.688759 
	C46.658245,46.222656 46.330421,45.111462 46.002594,44.000263 
	C46.320961,43.894527 46.580296,43.707123 46.891243,43.221706 
z"/>
<path fill="#B86316" opacity="1.000000" stroke="none" 
	d="
M48.104309,28.449846 
	C50.441799,28.752020 52.729599,29.435894 55.017395,30.119766 
	C55.142445,30.856195 55.267490,31.592623 55.392540,32.329052 
	C52.691483,34.683735 49.990425,37.038418 47.137112,39.705135 
	C45.724720,39.576527 44.464588,39.135891 43.204453,38.695255 
	C43.943012,37.641209 44.852192,36.665989 45.383450,35.516159 
	C46.388481,33.340927 47.176456,31.065401 48.104309,28.449846 
z"/>
<path fill="#F1A535" opacity="1.000000" stroke="none" 
	d="
M46.970016,48.043667 
	C46.973793,48.478420 46.977570,48.913174 46.733665,49.851021 
	C46.323029,51.569729 46.160065,52.785343 45.989334,54.401894 
	C45.978325,55.873081 45.975082,56.943329 45.776878,58.282761 
	C45.062153,59.679306 44.542385,60.806671 44.008820,61.974087 
	C43.995022,62.014137 43.964851,62.093311 43.964851,62.093311 
	C43.522972,62.077724 43.081093,62.062138 42.321442,61.647522 
	C42.322342,59.484596 42.641018,57.720692 42.959690,55.956791 
	C42.956326,55.535538 42.952961,55.114285 42.962597,54.028934 
	C42.634583,52.573910 42.293560,51.782978 41.952541,50.992050 
	C41.649120,49.237244 41.345699,47.482433 41.078693,45.336250 
	C41.545845,44.948910 41.976582,44.952942 42.897991,45.227283 
	C44.582451,46.346287 45.776234,47.194977 46.970016,48.043667 
z"/>
<path fill="#E78F1E" opacity="1.000000" stroke="none" 
	d="
M46.978046,47.688759 
	C45.776234,47.194977 44.582451,46.346287 43.222130,45.220512 
	C43.816853,44.629856 44.578110,44.316280 45.670982,44.001484 
	C46.330421,45.111462 46.658245,46.222656 46.978046,47.688759 
z"/>
<path fill="#ECA945" opacity="1.000000" stroke="none" 
	d="
M111.990143,105.030121 
	C111.820297,107.235870 111.650452,109.441628 110.979050,111.930969 
	C109.983467,112.475357 109.489441,112.736153 108.982437,112.595215 
	C107.643188,108.194901 104.331520,110.657524 101.622360,110.006561 
	C100.193413,109.615334 99.107986,109.258957 98.017555,108.552795 
	C97.927216,104.033463 94.572639,104.565025 91.980019,103.671646 
	C91.990990,102.892509 91.998711,102.447327 92.424377,102.001862 
	C95.920494,102.655029 98.998657,103.308479 102.303795,103.967300 
	C102.530777,103.972672 102.984825,103.978477 103.016022,104.308243 
	C103.656181,105.529907 104.265144,106.421806 104.874107,107.313705 
	C105.583649,106.537819 106.293190,105.761932 107.300331,104.968521 
	C108.065392,104.634544 108.532860,104.318108 109.319458,104.028549 
	C110.422447,104.380325 111.206299,104.705223 111.990143,105.030121 
z"/>
<path fill="#FBC971" opacity="1.000000" stroke="none" 
	d="
M112.176773,104.780861 
	C111.206299,104.705223 110.422447,104.380325 109.327301,103.671417 
	C109.676559,101.857422 110.337128,100.427437 111.002319,98.749069 
	C111.006943,98.500679 111.005814,98.003815 111.223480,97.893906 
	C111.711708,97.582855 111.898132,97.321663 112.246719,96.834030 
	C112.661896,96.111961 112.830803,95.556290 112.999695,95.000610 
	C114.746475,94.336990 116.493263,93.673370 118.631882,93.019348 
	C118.228088,94.466110 117.432457,95.903282 116.473778,97.634949 
	C118.527771,99.738152 120.378387,102.282104 117.072083,105.637726 
	C115.465347,105.501816 113.914375,105.016708 112.176773,104.780861 
z"/>
<path fill="#EEAF51" opacity="1.000000" stroke="none" 
	d="
M108.995422,112.996956 
	C109.489441,112.736153 109.983467,112.475357 110.735672,112.106468 
	C110.726875,113.618660 110.145256,115.270027 110.301186,116.848534 
	C110.408989,117.939796 111.535316,118.930450 112.590263,119.974731 
	C112.642517,121.715218 112.311005,123.447037 111.757584,125.690292 
	C111.268875,126.401077 111.050560,126.643974 110.573532,126.996010 
	C109.853859,127.716927 109.441360,128.372284 108.801453,129.058319 
	C108.574043,129.089020 108.118195,129.142303 107.829224,128.871643 
	C105.012833,123.118706 108.416962,118.189590 108.995422,112.996956 
z"/>
<path fill="#E69A36" opacity="1.000000" stroke="none" 
	d="
M94.015961,24.984266 
	C96.631294,25.721830 99.246628,26.459396 101.976456,27.550627 
	C102.090958,27.904293 102.003998,28.005035 101.572975,28.042980 
	C97.859581,27.630701 97.947273,29.819775 97.753754,31.880327 
	C96.305244,31.153368 95.157051,30.569876 94.008011,29.739399 
	C94.007172,29.492413 94.003967,28.998125 94.004196,28.598122 
	C94.003761,27.131304 94.003098,26.064487 94.001663,24.998398 
	C94.000885,24.999123 94.015961,24.984266 94.015961,24.984266 
z"/>
<path fill="#E69A36" opacity="1.000000" stroke="none" 
	d="
M92.013649,23.019825 
	C92.456741,23.012651 92.899841,23.005478 93.675919,22.996683 
	C94.010361,23.437845 94.011826,23.880632 94.014626,24.653843 
	C94.015961,24.984266 94.000885,24.999123 93.705971,24.978706 
	C92.942963,24.644978 92.474876,24.331663 92.009743,23.768726 
	C92.012703,23.519102 92.013649,23.019823 92.013649,23.019825 
z"/>
<path fill="#BE6B0F" opacity="1.000000" stroke="none" 
	d="
M108.118195,129.142303 
	C108.118195,129.142303 108.574043,129.089020 109.122131,129.017151 
	C110.073723,128.273666 110.477219,127.602058 110.880714,126.930443 
	C111.050560,126.643974 111.268875,126.401077 111.746185,126.074341 
	C112.977142,126.338943 114.538353,126.452469 114.911766,127.177635 
	C115.852661,129.004822 116.258087,131.107758 116.916885,133.463089 
	C114.244217,134.181015 111.532799,134.536026 108.428566,134.488068 
	C107.985161,133.069305 107.934570,132.053497 107.937981,130.722687 
	C108.034050,129.985886 108.076126,129.564102 108.118195,129.142303 
z"/>
<path fill="#ECA338" opacity="1.000000" stroke="none" 
	d="
M44.302525,132.295090 
	C44.936974,131.928192 45.621471,131.963593 46.705467,132.350250 
	C48.385841,135.811111 49.666718,138.920700 50.947594,142.030304 
	C50.778358,142.082275 50.609123,142.134247 50.051376,141.893311 
	C48.756248,141.531342 47.849621,141.462296 46.942997,141.393250 
	C46.505245,141.307510 46.067497,141.221771 45.299793,141.079865 
	C44.764088,138.248245 44.558334,135.472809 44.302525,132.295090 
z"/>
<path fill="#F1E0CE" opacity="1.000000" stroke="none" 
	d="
M99.020317,142.089554 
	C94.557472,146.273026 88.667130,145.882965 83.890862,144.641235 
	C76.918571,142.828552 70.643906,146.095688 64.070908,145.402237 
	C60.059731,144.979050 56.118889,143.889206 52.268768,142.357697 
	C55.901039,141.475800 59.410999,141.335022 63.348953,141.218414 
	C65.845558,140.800125 67.914169,140.357666 70.308655,139.955948 
	C71.061646,139.915253 71.488754,139.833832 72.345947,139.890472 
	C74.869392,139.952728 76.962746,139.876907 79.413345,139.901413 
	C80.510429,140.013977 81.250290,140.026184 82.192627,140.260300 
	C82.963692,140.460419 83.532280,140.438644 84.470810,140.572937 
	C85.900444,140.805466 86.960136,140.881943 88.274384,141.020355 
	C89.341911,141.004669 90.154884,140.927048 91.367920,140.924911 
	C94.185425,141.363434 96.602875,141.726501 99.020317,142.089554 
z"/>
<path fill="#DB8A21" opacity="1.000000" stroke="none" 
	d="
M62.920956,141.194244 
	C59.410999,141.335022 55.901039,141.475800 52.201012,142.002731 
	C51.831722,142.335602 51.652500,142.282303 51.210434,142.129639 
	C49.666718,138.920700 48.385841,135.811111 47.048744,132.354675 
	C46.992519,132.007843 47.018372,131.981689 47.403038,131.983246 
	C49.536991,132.647293 51.286274,133.309769 53.447090,133.985077 
	C57.527641,135.033813 61.196659,136.069733 64.881943,137.424469 
	C64.929375,138.167786 64.960548,138.592285 64.994476,139.004868 
	C64.997238,138.992966 64.975792,138.985153 64.760788,139.092499 
	C64.281471,139.398346 64.093544,139.653168 63.741158,140.105957 
	C63.307198,140.563141 63.114075,140.878708 62.920956,141.194244 
z"/>
<path fill="#D4892D" opacity="1.000000" stroke="none" 
	d="
M99.393890,142.015656 
	C96.602875,141.726501 94.185425,141.363434 91.387909,140.597870 
	C90.733734,139.405334 90.459633,138.615341 90.143829,137.485413 
	C90.107010,136.455093 90.111908,135.764709 90.425911,135.056824 
	C91.146210,135.002823 91.557396,134.966309 92.338615,134.957306 
	C94.126801,135.318008 95.544960,135.651215 97.018555,136.345963 
	C98.609840,141.137787 101.728401,137.325333 104.393463,138.073547 
	C105.084465,138.138824 105.360954,138.163910 105.637451,138.188980 
	C105.580582,138.599518 105.523720,139.010040 105.433655,139.729218 
	C103.522789,140.672501 101.645134,141.307129 99.393890,142.015656 
z"/>
<path fill="#F1E0CE" opacity="1.000000" stroke="none" 
	d="
M47.017052,141.675552 
	C47.849621,141.462296 48.756248,141.531342 49.789249,141.935822 
	C48.974117,142.166794 48.032612,142.062332 47.017052,141.675552 
z"/>
<path fill="#EEAF51" opacity="1.000000" stroke="none" 
	d="
M105.921188,138.109100 
	C105.360954,138.163910 105.084465,138.138824 104.397408,137.718842 
	C103.665565,136.210236 103.344284,135.096512 103.153145,133.714249 
	C103.890747,132.658630 104.498207,131.871582 105.452446,131.066010 
	C106.494141,131.044235 107.189064,131.040970 107.883980,131.037704 
	C107.934570,132.053497 107.985161,133.069305 108.023163,134.464569 
	C107.408684,135.905762 106.806801,136.967499 105.921188,138.109100 
z"/>
<path fill="#EDA83F" opacity="1.000000" stroke="none" 
	d="
M39.916618,83.909592 
	C39.041431,82.616051 38.166248,81.322502 36.844288,79.368607 
	C38.406811,78.544296 39.821606,77.676216 41.333004,77.036293 
	C42.723671,76.447495 44.218250,76.104118 46.341473,75.442451 
	C39.891418,72.389702 39.695324,72.082039 42.819275,69.956085 
	C43.630802,69.978394 43.815174,69.989044 44.138824,70.297974 
	C45.877613,71.706673 47.477119,72.817093 49.432869,73.985580 
	C51.180664,74.380386 52.572212,74.717117 54.076775,75.301651 
	C54.472404,76.014915 54.755024,76.480392 55.054260,77.301788 
	C57.410297,79.727737 59.749710,81.797760 62.450325,83.891052 
	C63.532856,83.963631 64.254181,84.012939 64.854660,84.264435 
	C64.529930,84.714912 64.279381,84.900063 63.613659,85.184952 
	C60.507271,85.509460 57.769390,85.671082 54.954548,85.484314 
	C50.247375,80.506905 45.200428,81.509819 40.009201,84.006332 
	C39.977787,83.974617 39.916618,83.909592 39.916618,83.909592 
z"/>
<path fill="#EEAB45" opacity="1.000000" stroke="none" 
	d="
M48.001740,100.994019 
	C45.544563,101.397171 43.087391,101.800323 39.306599,102.420647 
	C41.034683,99.757774 41.882221,98.451767 42.949093,96.807785 
	C41.601135,96.245499 40.487583,95.780998 38.500648,94.952179 
	C40.452389,93.391541 41.902428,92.232071 43.707584,91.455544 
	C46.561779,95.547951 49.246334,94.918190 52.342987,92.120041 
	C53.095245,91.991035 53.525581,91.920639 54.348286,91.887329 
	C56.256142,92.038635 57.771633,92.152855 59.287121,92.267067 
	C59.392792,92.655632 59.498463,93.044197 59.604134,93.432762 
	C57.427025,94.632629 55.249912,95.832497 52.724262,97.161545 
	C50.765358,98.345200 47.465939,97.404694 48.001740,100.994019 
z"/>
<path fill="#ECA73F" opacity="1.000000" stroke="none" 
	d="
M46.063156,90.062721 
	C43.836632,89.550003 41.610104,89.037292 38.358921,88.288628 
	C38.204445,87.727455 32.742657,85.794807 39.560024,83.935623 
	C39.916618,83.909592 39.977787,83.974617 40.082378,84.388489 
	C41.799679,85.210052 43.461544,85.484383 45.013649,86.056488 
	C47.380486,86.928909 49.671402,88.007294 51.775520,89.113884 
	C51.289108,89.433525 51.075703,89.683563 50.510525,89.975906 
	C48.757580,90.002327 47.410366,90.032524 46.063156,90.062721 
z"/>
<path fill="#F4B046" opacity="1.000000" stroke="none" 
	d="
M43.999542,69.999695 
	C43.815174,69.989044 43.630802,69.978394 43.170139,69.934105 
	C43.249973,67.558350 43.606102,65.216232 43.963539,62.483715 
	C43.964851,62.093311 43.995022,62.014137 44.405495,61.987679 
	C45.876335,61.946991 46.936703,61.932758 48.031212,62.231270 
	C49.043522,62.696060 50.021683,62.848106 50.999931,63.373859 
	C51.000111,64.494972 51.000206,65.242386 50.706360,66.136414 
	C49.596233,67.504486 48.780056,68.725945 47.567551,69.958199 
	C46.113998,69.979225 45.056770,69.989464 43.999542,69.999695 
z"/>
<path fill="#EEAB45" opacity="1.000000" stroke="none" 
	d="
M59.000809,104.001831 
	C55.940521,104.000320 52.880230,103.998810 49.393482,103.984848 
	C48.977814,103.228920 48.988602,102.485435 49.366447,101.369026 
	C50.821205,100.669685 51.908905,100.343262 53.368782,100.001144 
	C54.484638,99.960983 55.228321,99.936508 56.149475,100.163658 
	C57.387646,100.415276 58.448345,100.415276 59.729408,100.415276 
	C59.445251,101.814056 59.223030,102.907944 59.000809,104.001831 
z"/>
<path fill="#DB891D" opacity="1.000000" stroke="none" 
	d="
M45.873112,90.283112 
	C47.410366,90.032524 48.757580,90.002327 50.782967,90.155777 
	C51.647781,90.952507 51.834427,91.565582 52.021072,92.178658 
	C49.246334,94.918190 46.561779,95.547951 44.060020,91.442764 
	C44.599255,90.865860 45.141159,90.684685 45.873112,90.283112 
z"/>
<path fill="#ECA73F" opacity="1.000000" stroke="none" 
	d="
M52.996605,100.016838 
	C51.908905,100.343262 50.821205,100.669685 49.369385,100.996826 
	C48.837997,100.998947 48.670731,101.000336 48.252602,100.997879 
	C47.465939,97.404694 50.765358,98.345200 52.696629,97.533150 
	C53.010555,98.522652 53.003578,99.269745 52.996605,100.016838 
z"/>
<path fill="#F4B046" opacity="1.000000" stroke="none" 
	d="
M42.609741,56.027554 
	C42.641018,57.720692 42.322342,59.484596 41.989967,61.637375 
	C38.108517,59.860767 40.394470,57.989601 42.609741,56.027554 
z"/>
<path fill="#F4B046" opacity="1.000000" stroke="none" 
	d="
M41.706608,51.197445 
	C42.293560,51.782978 42.634583,52.573910 42.957451,53.713028 
	C42.446423,53.175095 41.953548,52.288967 41.706608,51.197445 
z"/>
<path fill="#F5B44E" opacity="1.000000" stroke="none" 
	d="
M65.988602,109.006165 
	C64.919914,106.667557 63.851227,104.328941 62.398643,101.616272 
	C64.003090,98.836617 65.991432,96.431023 68.117668,94.323364 
	C69.739525,95.250854 71.223480,95.880409 72.707436,96.509964 
	C72.833084,96.186958 72.958733,95.863953 73.084381,95.540939 
	C74.302643,97.002144 75.520905,98.463348 77.501450,100.838860 
	C77.501450,98.081955 77.501450,96.739319 77.501450,94.293320 
	C80.729477,95.329262 83.350883,96.170525 85.819809,97.327316 
	C84.779625,100.096657 83.891914,102.550461 82.601501,105.011642 
	C81.134186,106.197174 79.492126,107.226448 79.140938,108.588547 
	C78.620140,110.608490 79.014084,112.864288 79.010101,115.010300 
	C79.001572,115.000916 79.014366,115.017868 78.645889,115.006882 
	C76.849358,113.998093 75.421295,113.000290 73.989258,111.623741 
	C72.873604,108.852478 71.761940,106.459953 70.650276,104.067429 
	C69.833023,104.484283 69.015762,104.901138 68.198509,105.317993 
	C69.464767,107.878532 70.731026,110.439079 71.830856,113.243622 
	C71.112808,113.656761 70.561188,113.825890 69.821640,113.734604 
	C68.418671,111.984848 67.203636,110.495506 65.988602,109.006165 
z"/>
<path fill="#A55607" opacity="1.000000" stroke="none" 
	d="
M61.040535,109.063416 
	C61.735088,109.048103 62.429646,109.032791 63.491161,109.461746 
	C65.252991,113.935242 66.647850,117.964478 68.086311,122.359947 
	C69.259201,124.963081 70.388489,127.199982 71.469788,129.758423 
	C71.283546,130.717041 71.145302,131.354126 70.634628,131.987274 
	C68.506805,132.655777 66.751427,133.328186 64.835464,133.688522 
	C63.590275,131.470123 61.133728,128.527588 61.656544,127.835388 
	C64.025017,124.699608 62.222843,123.442062 59.852486,121.666779 
	C57.836636,118.216789 54.929317,115.107895 60.049194,112.125229 
	C60.739819,111.722893 60.727406,110.113754 61.040535,109.063416 
z"/>
<path fill="#DA912E" opacity="1.000000" stroke="none" 
	d="
M68.042709,121.993721 
	C66.647850,117.964478 65.252991,113.935242 63.836227,109.503708 
	C64.297874,109.070557 64.781418,109.039711 65.626785,109.007515 
	C67.203636,110.495506 68.418671,111.984848 69.863831,114.101921 
	C73.586960,118.524399 76.612312,118.622147 79.014366,115.017868 
	C79.014366,115.017868 79.001572,115.000916 79.424408,115.004776 
	C80.958748,115.065720 82.070244,115.122810 83.155151,115.566528 
	C82.421982,118.304924 81.715416,120.656693 80.589043,123.005875 
	C76.127068,122.666779 72.084885,122.330254 68.042709,121.993721 
z"/>
<path fill="#C47212" opacity="1.000000" stroke="none" 
	d="
M60.730293,108.903450 
	C60.727406,110.113754 60.739819,111.722893 60.049194,112.125229 
	C54.929317,115.107895 57.836636,118.216789 59.847645,122.074570 
	C60.023849,124.921829 60.365448,127.274162 57.013397,126.606010 
	C56.858177,122.725273 56.991119,119.052963 51.963478,118.995590 
	C51.621788,116.225739 51.280098,113.455894 50.970345,110.347809 
	C54.111683,109.365417 56.773415,105.391350 60.730293,108.903450 
z"/>
<path fill="#ECA73F" opacity="1.000000" stroke="none" 
	d="
M67.979767,94.025421 
	C65.991432,96.431023 64.003090,98.836617 62.013138,101.604546 
	C61.223228,102.627098 60.434929,103.287323 59.323715,103.974686 
	C59.223030,102.907944 59.445251,101.814056 59.729408,100.415276 
	C58.448345,100.415276 57.387646,100.415276 56.220310,99.813057 
	C58.042568,97.963867 61.235062,97.043694 61.658276,95.407310 
	C62.826214,90.891388 65.373108,92.357735 67.996719,93.261398 
	C67.988914,93.685890 67.984337,93.855659 67.979767,94.025421 
z"/>
<path fill="#DB8A21" opacity="1.000000" stroke="none" 
	d="
M45.451973,118.534096 
	C45.417824,118.477592 45.486126,118.590599 45.451973,118.534096 
z"/>
<path fill="#CF7C16" opacity="1.000000" stroke="none" 
	d="
M51.662430,119.042801 
	C56.991119,119.052963 56.858177,122.725273 56.776054,126.872314 
	C54.843121,127.985382 53.143311,128.424805 52.701881,128.538925 
	C52.852367,130.989349 52.943962,132.480804 53.035557,133.972244 
	C51.286274,133.309769 49.536991,132.647293 47.415955,131.970337 
	C47.632915,130.617264 47.853897,128.731995 48.879128,128.042358 
	C51.982445,125.954903 54.497868,124.122810 50.663578,120.503044 
	C50.551449,120.397194 51.113605,119.577095 51.662430,119.042801 
z"/>
<path fill="#E48A16" opacity="1.000000" stroke="none" 
	d="
M60.994225,45.994637 
	C61.238750,43.086624 60.768375,39.852776 61.917648,37.368080 
	C63.635033,33.655128 66.771873,37.661663 69.941040,37.164314 
	C72.753937,38.218979 74.876846,39.107304 77.001221,40.310898 
	C77.210289,41.184048 77.417885,41.741932 77.625488,42.299812 
	C78.418724,41.202629 79.211960,40.105446 80.002853,39.004448 
	C80.000526,39.000637 80.007919,39.005470 80.398338,39.012085 
	C84.703934,41.035721 90.412804,40.170826 91.963081,46.161869 
	C92.112358,46.738762 94.903824,47.306194 96.039490,46.837635 
	C101.129051,44.737740 101.238792,44.759224 102.274269,50.095566 
	C102.426567,50.880474 104.033905,51.383038 104.968018,52.016235 
	C105.077377,52.826206 105.193909,53.635284 105.294624,54.446327 
	C105.520218,56.263096 105.737930,58.080837 105.958855,59.898186 
	C104.261711,59.644848 102.563965,59.395493 100.867645,59.136761 
	C99.742638,58.965168 98.619675,58.780159 97.471817,58.060135 
	C98.877487,57.109558 100.307129,56.700001 103.109581,55.897175 
	C98.974564,53.532784 95.960495,51.809353 92.508797,50.066078 
	C89.715897,50.023251 87.360626,50.000256 84.871422,49.669617 
	C84.577515,48.009296 84.417542,46.656616 84.241898,45.171478 
	C76.458473,47.056572 68.575691,41.086357 61.022568,46.021980 
	C61.022568,46.021980 61.004086,46.004036 60.994225,45.994637 
z"/>
<path fill="#EF951B" opacity="1.000000" stroke="none" 
	d="
M104.980713,51.613514 
	C104.033905,51.383038 102.426567,50.880474 102.274269,50.095566 
	C101.238792,44.759224 101.129051,44.737740 96.039490,46.837635 
	C94.903824,47.306194 92.112358,46.738762 91.963081,46.161869 
	C90.412804,40.170826 84.703934,41.035721 80.448868,38.669094 
	C82.262169,35.863743 84.001755,32.437569 88.153641,35.768711 
	C88.970840,36.424366 90.693634,35.951294 91.999603,35.999588 
	C92.000420,36.000401 92.007324,36.007034 92.007324,36.007034 
	C94.627617,40.703190 98.410301,42.344154 104.258255,41.419727 
	C105.857315,41.166954 107.490501,41.130077 109.523354,40.990280 
	C108.290253,44.394554 106.641830,47.802673 104.980713,51.613514 
z"/>
<path fill="#CE7514" opacity="1.000000" stroke="none" 
	d="
M90.976845,62.005852 
	C90.147758,62.235554 89.318672,62.465256 87.918335,62.694099 
	C86.245865,62.774387 85.144646,62.855530 83.855865,62.626930 
	C81.909760,62.273754 80.151230,62.230324 78.008667,62.157188 
	C76.069191,61.939110 74.513741,61.750732 73.000732,61.270618 
	C73.277184,60.269215 73.511200,59.559544 73.745216,58.849873 
	C73.440353,58.544056 73.135483,58.238239 72.830620,57.932419 
	C71.186356,59.253521 69.542099,60.574623 67.644135,62.042301 
	C66.890839,62.778011 66.391258,63.367142 65.664841,64.144363 
	C65.295372,64.895103 65.152733,65.457741 64.992157,66.259171 
	C64.974228,66.497955 64.953087,66.976402 64.745834,67.087410 
	C64.279686,67.390862 64.091805,67.637421 63.648201,67.942886 
	C62.885769,67.949257 62.450081,67.950867 62.010880,67.609344 
	C61.978348,66.807953 61.949329,66.349693 62.077316,65.595200 
	C64.027634,62.548561 61.755848,61.915508 60.056458,60.678139 
	C60.798382,59.881531 61.485657,59.419563 62.452972,59.064770 
	C64.433922,58.430920 66.134834,57.689892 68.274658,56.976753 
	C70.169373,56.945404 71.625191,56.886173 73.466515,56.856895 
	C74.879417,56.899330 75.906815,56.911812 77.329178,56.909027 
	C79.543961,56.594296 81.363770,56.294830 83.226791,56.335007 
	C84.421028,59.389755 85.984138,61.486168 89.736328,60.898014 
	C90.360741,61.352005 90.668793,61.678928 90.976845,62.005852 
z"/>
<path fill="#C56705" opacity="1.000000" stroke="none" 
	d="
M92.946426,50.085922 
	C95.960495,51.809353 98.974564,53.532784 103.109581,55.897175 
	C100.307129,56.700001 98.877487,57.109558 97.211960,57.798069 
	C96.213943,58.088661 95.451813,58.100292 94.254135,57.909683 
	C93.561646,57.822166 93.304710,57.936886 93.047775,58.051605 
	C93.047775,58.051605 93.006645,58.019997 92.656296,57.996826 
	C91.810135,57.925030 91.314323,57.876404 90.818069,57.508690 
	C90.503479,56.199009 90.189339,55.208420 89.939255,53.867134 
	C90.984352,52.372932 91.965393,51.229427 92.946426,50.085922 
z"/>
<path fill="#F9BB53" opacity="1.000000" stroke="none" 
	d="
M109.571342,63.987434 
	C109.207893,65.444244 108.425797,66.901031 107.643700,68.357819 
	C107.191940,68.201584 106.740181,68.045349 106.288422,67.889122 
	C106.859482,69.669693 107.430550,71.450272 107.629128,73.615105 
	C106.515182,74.002380 105.773727,74.005402 105.032272,74.008423 
	C103.552887,70.659241 102.073494,67.310059 100.270569,63.228447 
	C104.111626,63.556664 106.632156,63.772041 109.571342,63.987434 
z"/>
<path fill="#F7BC59" opacity="1.000000" stroke="none" 
	d="
M104.679977,74.016678 
	C105.773727,74.005402 106.515182,74.002380 107.627861,73.999374 
	C108.487755,74.584389 108.976433,75.169395 109.731277,76.250778 
	C109.998192,77.498512 109.998947,78.249863 109.599541,79.009537 
	C105.670639,79.772827 102.141891,80.527802 98.613144,81.282768 
	C98.544212,80.811813 98.475281,80.340851 98.406349,79.869896 
	C99.270012,78.578247 100.133682,77.286606 101.241852,75.832710 
	C101.730057,75.142593 101.973740,74.614731 102.217430,74.086861 
	C102.920845,74.066216 103.624260,74.045578 104.679977,74.016678 
z"/>
<path fill="#CA7714" opacity="1.000000" stroke="none" 
	d="
M82.846687,70.047234 
	C83.768974,70.567848 84.732292,71.575554 85.604538,71.502083 
	C87.155846,71.371399 88.651993,70.585968 90.566971,70.463570 
	C90.980392,71.875656 90.998062,72.898590 90.854851,74.249649 
	C89.148064,75.064896 87.602165,75.552025 85.841934,75.773361 
	C84.417610,75.031166 83.207619,74.554771 81.809616,73.789062 
	C81.127731,72.316940 80.633858,71.134132 80.480240,69.957397 
	C81.495895,69.991394 82.171295,70.019310 82.846687,70.047234 
z"/>
<path fill="#EC9A29" opacity="1.000000" stroke="none" 
	d="
M83.143791,69.922226 
	C82.171295,70.019310 81.495895,69.991394 80.422806,69.636810 
	C79.973297,68.878830 79.921494,68.447510 80.118820,67.886856 
	C80.224159,67.182938 80.080360,66.608345 79.881088,65.687187 
	C79.347977,64.289368 78.870338,63.238129 78.392700,62.186890 
	C80.151230,62.230324 81.909760,62.273754 83.929008,62.880959 
	C84.811913,64.659546 85.434097,65.874367 86.056282,67.089188 
	C85.184486,67.991867 84.312691,68.894547 83.143791,69.922226 
z"/>
<path fill="#E49424" opacity="1.000000" stroke="none" 
	d="
M91.015732,73.921524 
	C90.998062,72.898590 90.980392,71.875656 90.940414,70.472610 
	C94.526398,71.233803 98.134689,72.375114 101.980209,73.801636 
	C101.973740,74.614731 101.730057,75.142593 100.843704,75.827637 
	C99.139183,76.001419 98.077316,76.018028 97.153923,75.784454 
	C97.512337,75.039185 97.732277,74.544090 97.952225,74.048996 
	C96.307518,74.001068 94.662827,73.953148 92.684341,73.915573 
	C91.905609,73.924446 91.460670,73.922981 91.015732,73.921524 
z"/>
<path fill="#E48A16" opacity="1.000000" stroke="none" 
	d="
M86.416428,67.004021 
	C85.434097,65.874367 84.811913,64.659546 84.116577,63.190704 
	C85.144646,62.855530 86.245865,62.774387 87.607384,62.786312 
	C87.503983,64.225876 87.140274,65.572365 86.416428,67.004021 
z"/>
<path fill="#F9BB53" opacity="1.000000" stroke="none" 
	d="
M108.983917,56.415405 
	C110.986610,57.946041 112.939766,59.892170 110.362213,62.950394 
	C109.676529,60.946152 109.333229,58.881554 108.983917,56.415405 
z"/>
<path fill="#E48A16" opacity="1.000000" stroke="none" 
	d="
M90.818512,57.827782 
	C91.314323,57.876404 91.810135,57.925030 92.678101,58.017311 
	C92.599800,59.339737 92.149353,60.618507 91.337875,61.951565 
	C90.668793,61.678928 90.360741,61.352005 89.843552,60.694077 
	C89.634422,60.363071 89.915939,59.998451 90.171265,59.834175 
	C90.529083,59.289482 90.631584,58.909065 90.709343,58.347908 
	C90.684608,58.167171 90.818512,57.827782 90.818512,57.827782 
z"/>
<path fill="#E48A16" opacity="1.000000" stroke="none" 
	d="
M93.267365,58.064278 
	C93.304710,57.936886 93.561646,57.822166 93.872681,57.896805 
	C93.926773,58.086159 93.486954,58.076954 93.267365,58.064278 
z"/>
<path fill="#EEA73C" opacity="1.000000" stroke="none" 
	d="
M102.076813,103.961929 
	C98.998657,103.308479 95.920494,102.655029 92.425354,101.653351 
	C93.123566,100.459129 94.238770,99.613144 95.973885,98.296890 
	C94.499435,96.999832 92.772141,95.480347 90.968422,93.609688 
	C89.077553,92.156487 87.263100,91.054459 85.448639,89.952431 
	C85.514908,89.675385 85.581184,89.398346 85.647453,89.121307 
	C88.099167,89.419151 90.550880,89.717003 93.424721,90.009323 
	C98.240685,89.579811 102.638802,89.191521 107.020592,88.666870 
	C107.387405,88.622948 107.644341,87.661369 107.967697,87.073303 
	C107.983078,87.020454 108.014961,86.915108 108.014961,86.915115 
	C109.290443,87.461166 110.565918,88.007225 111.841400,88.553284 
	C111.843323,89.018150 111.845245,89.483025 111.847168,89.947891 
	C108.834679,90.629417 105.822189,91.310936 102.809692,91.992455 
	C102.853050,92.285202 102.896400,92.577942 102.939758,92.870682 
	C103.717300,92.923256 104.494843,92.975822 105.664993,93.378174 
	C107.462082,100.933342 102.915260,95.117096 100.738892,96.225937 
	C101.156837,98.642540 101.616821,101.302231 102.076813,103.961929 
z"/>
<path fill="#F2AF46" opacity="1.000000" stroke="none" 
	d="
M97.015450,76.034630 
	C98.077316,76.018028 99.139183,76.001419 100.599197,75.989883 
	C100.133682,77.286606 99.270012,78.578247 98.406349,79.869896 
	C98.475281,80.340851 98.544212,80.811813 98.613144,81.282768 
	C102.141891,80.527802 105.670639,79.772827 109.599937,79.426094 
	C110.000320,81.223091 110.000160,82.611855 110.000000,84.000610 
	C109.560066,84.005562 109.120132,84.010513 107.988342,84.016075 
	C106.518799,84.702576 105.741119,85.388466 104.606812,86.045883 
	C97.737289,82.542709 94.415512,83.036407 90.682610,87.870338 
	C89.591057,87.504272 88.795006,87.257820 87.871552,86.704620 
	C88.090691,85.575356 88.290237,84.642296 88.810524,83.950432 
	C90.570366,81.610283 92.443886,79.355637 94.450066,76.817398 
	C95.422600,76.389206 96.219025,76.211914 97.015450,76.034630 
z"/>
<path fill="#F6B853" opacity="1.000000" stroke="none" 
	d="
M102.303795,103.967300 
	C101.616821,101.302231 101.156837,98.642540 100.738892,96.225937 
	C102.915260,95.117096 107.462082,100.933342 106.012802,93.379333 
	C108.090118,93.589592 110.212242,94.148468 112.667038,94.853973 
	C112.830803,95.556290 112.661896,96.111961 112.025841,96.940155 
	C111.282341,97.412048 111.098053,97.675758 111.005814,98.003815 
	C111.005814,98.003815 111.006943,98.500679 110.658432,98.780792 
	C108.407768,98.967514 106.505615,98.874130 104.306763,98.766174 
	C104.858902,100.472168 105.429604,102.235535 105.623550,103.997940 
	C104.492813,103.990814 103.738815,103.984642 102.984825,103.978470 
	C102.984825,103.978477 102.530777,103.972672 102.303795,103.967300 
z"/>
<path fill="#F7B851" opacity="1.000000" stroke="none" 
	d="
M110.391968,84.001366 
	C110.000160,82.611855 110.000320,81.223091 110.000092,79.417778 
	C109.998947,78.249863 109.998192,77.498512 109.996582,76.371368 
	C114.230972,77.771912 114.230972,77.771912 114.474983,83.653526 
	C113.257706,83.768486 112.020828,83.885307 110.391968,84.001366 
z"/>
<path fill="#FBC971" opacity="1.000000" stroke="none" 
	d="
M114.670959,63.171997 
	C115.663841,66.396309 116.339867,69.791718 117.018654,73.587341 
	C114.711693,70.795387 111.449249,67.841957 114.670959,63.171997 
z"/>
<path fill="#F7B851" opacity="1.000000" stroke="none" 
	d="
M104.963448,86.074356 
	C105.741119,85.388466 106.518799,84.702576 107.658371,84.017914 
	C108.014961,84.744064 108.009651,85.468987 108.009651,86.554512 
	C108.014961,86.915108 107.983078,87.020454 107.637054,87.038834 
	C106.515167,86.729599 105.739311,86.401978 104.963448,86.074356 
z"/>
<path fill="#B55F14" opacity="1.000000" stroke="none" 
	d="
M98.054054,32.023796 
	C97.947273,29.819775 97.859581,27.630701 101.531067,28.094664 
	C102.776794,29.941526 103.633392,31.774651 104.760994,33.810745 
	C105.222794,35.128174 105.413597,36.242638 105.660439,37.684402 
	C103.873001,37.684402 102.305016,37.684402 100.809311,37.684402 
	C100.133331,36.044106 99.532021,34.584991 98.530136,32.797379 
	C98.129570,32.468876 98.054054,32.023796 98.054054,32.023796 
z"/>
<path fill="#EF951B" opacity="1.000000" stroke="none" 
	d="
M97.753754,31.880327 
	C98.054054,32.023796 98.129570,32.468876 98.171509,32.690205 
	C96.373779,33.919189 94.534111,34.926849 92.350891,35.970772 
	C92.007324,36.007034 92.000420,36.000401 92.000214,35.627880 
	C92.669624,33.499035 93.339233,31.742708 94.008850,29.986385 
	C95.157051,30.569876 96.305244,31.153368 97.753754,31.880327 
z"/>
<path fill="#EF951B" opacity="1.000000" stroke="none" 
	d="
M108.535896,38.550552 
	C108.481392,38.583229 108.590401,38.517879 108.535896,38.550552 
z"/>
<path fill="#F5A12A" opacity="1.000000" stroke="none" 
	d="
M92.006783,24.018349 
	C92.474876,24.331663 92.942963,24.644978 93.706741,24.977982 
	C94.003098,26.064487 94.003761,27.131304 93.646500,28.562744 
	C92.497581,28.721630 91.394341,28.074327 90.964027,28.378624 
	C86.773552,31.341949 83.675377,29.930504 80.912628,26.258276 
	C80.642014,25.898567 79.656670,26.076572 78.666412,25.857029 
	C76.548790,25.131620 74.767815,24.554171 72.986847,23.976723 
	C73.635559,23.222553 74.284264,22.468386 74.987091,21.417217 
	C78.049927,21.094946 81.058655,21.069674 84.581360,21.430313 
	C87.399155,22.550266 89.702972,23.284307 92.006783,24.018349 
z"/>
<path fill="#F7AC3C" opacity="1.000000" stroke="none" 
	d="
M92.009743,23.768726 
	C89.702972,23.284307 87.399155,22.550266 85.032715,21.447046 
	C87.165085,21.535082 89.360100,21.992298 91.784378,22.734669 
	C92.013649,23.019823 92.012703,23.519102 92.009743,23.768726 
z"/>
<path fill="#F39A1E" opacity="1.000000" stroke="none" 
	d="
M79.003075,26.004988 
	C79.656670,26.076572 80.642014,25.898567 80.912628,26.258276 
	C83.675377,29.930504 86.773552,31.341949 90.964027,28.378624 
	C91.394341,28.074327 92.497581,28.721630 93.646271,28.962746 
	C94.003967,28.998125 94.007172,29.492413 94.008011,29.739399 
	C93.339233,31.742708 92.669624,33.499035 91.999390,35.627068 
	C90.693634,35.951294 88.970840,36.424366 88.153641,35.768711 
	C84.001755,32.437569 82.262169,35.863743 80.058449,38.662479 
	C80.007919,39.005470 80.000526,39.000637 79.664505,39.003311 
	C78.552231,39.335865 77.775986,39.665745 76.999748,39.995628 
	C74.876846,39.107304 72.753937,38.218979 70.313080,37.162960 
	C69.457672,35.248592 68.920227,33.501919 68.382782,31.755241 
	C66.876343,32.263927 65.369911,32.772610 63.502701,33.403118 
	C62.575714,31.506365 63.628273,27.014200 58.742310,28.490749 
	C58.489166,28.567251 57.645302,26.689043 57.042244,25.373768 
	C59.468830,24.497946 61.929626,23.969244 64.846725,23.527916 
	C69.422859,28.356306 74.063324,29.165741 79.003075,26.004988 
z"/>
<path fill="#F59F26" opacity="1.000000" stroke="none" 
	d="
M78.666412,25.857029 
	C74.063324,29.165741 69.422859,28.356306 65.151398,23.308487 
	C67.419388,23.327242 69.839005,23.652803 72.622734,23.977543 
	C74.767815,24.554171 76.548790,25.131620 78.666412,25.857029 
z"/>
<path fill="#C66906" opacity="1.000000" stroke="none" 
	d="
M61.001068,46.419174 
	C68.575691,41.086357 76.458473,47.056572 84.241898,45.171478 
	C84.417542,46.656616 84.577515,48.009296 84.717148,49.976051 
	C83.225647,50.688534 81.190811,51.460186 80.374344,50.776615 
	C74.871750,46.169674 69.077339,46.701687 62.721653,49.263542 
	C62.278786,50.914028 62.130966,52.442600 61.863861,54.227333 
	C61.509899,54.979092 61.275219,55.474693 60.688049,55.996773 
	C58.222721,56.675888 56.109882,57.328518 53.582069,57.976540 
	C51.785915,57.993099 50.404736,58.014263 48.691269,58.019993 
	C47.915524,57.998291 47.472061,57.992020 47.063828,57.624420 
	C47.434155,55.858494 47.769253,54.453896 48.328430,53.045151 
	C48.552513,53.041000 48.999542,53.008038 48.999542,53.008038 
	C50.031353,51.592461 51.063160,50.176884 52.807030,47.784393 
	C54.581650,46.651089 58.760494,52.133148 61.001068,46.419174 
z"/>
<path fill="#E78F1E" opacity="1.000000" stroke="none" 
	d="
M48.993397,52.653538 
	C48.999542,53.008038 48.552513,53.041000 48.048553,53.127838 
	C47.028763,53.476768 46.512932,53.738861 45.997101,54.000954 
	C46.160065,52.785343 46.323029,51.569729 46.741882,50.176994 
	C47.660931,50.766262 48.324093,51.532650 48.993397,52.653538 
z"/>
<path fill="#E78F1E" opacity="1.000000" stroke="none" 
	d="
M47.028595,57.985748 
	C47.472061,57.992020 47.915524,57.998291 48.681004,58.361626 
	C48.667698,59.785297 48.332382,60.851910 47.997070,61.918526 
	C46.936703,61.932758 45.876335,61.946991 44.419292,61.947632 
	C44.542385,60.806671 45.062153,59.679306 46.041245,58.276249 
	C46.676586,57.995621 46.852592,57.990685 47.028595,57.985748 
z"/>
<path fill="#E48A16" opacity="1.000000" stroke="none" 
	d="
M47.063828,57.624420 
	C46.852592,57.990685 46.676586,57.995621 46.236206,58.007069 
	C45.975082,56.943329 45.978325,55.873081 45.989334,54.401894 
	C46.512932,53.738861 47.028763,53.476768 47.824474,53.131989 
	C47.769253,54.453896 47.434155,55.858494 47.063828,57.624420 
z"/>
<path fill="#D5841D" opacity="1.000000" stroke="none" 
	d="
M105.105667,131.084518 
	C104.498207,131.871582 103.890747,132.658630 102.730301,133.715179 
	C100.768074,133.967804 99.358833,133.950943 97.965530,133.553955 
	C98.190887,131.713837 98.400299,130.253845 98.612717,128.794250 
	C92.580292,123.539246 92.448822,120.318542 97.780838,113.982727 
	C98.297218,113.369148 97.948257,112.027321 98.001572,110.670654 
	C98.008965,109.846039 98.015770,109.374313 98.022568,108.902588 
	C99.107986,109.258957 100.193413,109.615334 101.769478,110.313339 
	C102.491364,112.638565 102.722610,114.622139 102.953850,116.605721 
	C102.255165,116.700417 101.556480,116.795113 100.857788,116.889816 
	C103.907845,119.060905 105.955872,121.207558 101.668564,122.679771 
	C102.907906,125.710335 104.006783,128.397430 105.105667,131.084518 
z"/>
<path fill="#E79D34" opacity="1.000000" stroke="none" 
	d="
M105.452446,131.066010 
	C104.006783,128.397430 102.907906,125.710335 101.668564,122.679771 
	C105.955872,121.207558 103.907845,119.060905 100.857788,116.889816 
	C101.556480,116.795113 102.255165,116.700417 102.953850,116.605721 
	C102.722610,114.622139 102.491364,112.638565 102.113007,110.348198 
	C104.331520,110.657524 107.643188,108.194901 108.982437,112.595215 
	C108.416962,118.189590 105.012833,123.118706 107.829224,128.871643 
	C108.076126,129.564102 108.034050,129.985886 107.937981,130.722687 
	C107.189064,131.040970 106.494141,131.044235 105.452446,131.066010 
z"/>
<path fill="#E49424" opacity="1.000000" stroke="none" 
	d="
M91.044838,93.960861 
	C92.772141,95.480347 94.499435,96.999832 95.973885,98.296890 
	C94.238770,99.613144 93.123566,100.459129 92.007393,101.653625 
	C91.998711,102.447327 91.990990,102.892509 91.650192,103.671265 
	C90.549088,104.315140 89.781067,104.625465 88.640938,104.953278 
	C87.524704,104.967941 86.780563,104.965126 86.024216,104.616379 
	C86.500443,102.841766 87.156235,101.442780 87.416985,99.973679 
	C87.583755,99.034035 87.166885,97.990791 87.008934,96.621811 
	C86.997673,95.505829 86.989151,94.762032 87.306854,94.041275 
	C88.770340,94.029823 89.907585,93.995338 91.044838,93.960861 
z"/>
<path fill="#DD9129" opacity="1.000000" stroke="none" 
	d="
M89.013039,104.935791 
	C89.781067,104.625465 90.549088,104.315140 91.646935,104.005203 
	C94.572639,104.565025 97.927216,104.033463 98.017563,108.552795 
	C98.015770,109.374313 98.008965,109.846039 97.704369,110.552818 
	C96.612419,110.506752 95.818268,110.225632 94.997269,109.685837 
	C93.635483,108.986404 92.300537,108.545647 90.965591,108.104889 
	C90.988358,108.740471 91.011124,109.376045 90.872574,110.321884 
	C88.801949,111.411652 86.892632,112.191162 84.978661,112.578644 
	C85.775269,110.793907 86.588974,109.408173 87.373611,108.006180 
	C87.940117,106.993919 88.467957,105.960030 89.013039,104.935791 
z"/>
<path fill="#FAC363" opacity="1.000000" stroke="none" 
	d="
M106.000305,103.998901 
	C105.429604,102.235535 104.858902,100.472168 104.306763,98.766174 
	C106.505615,98.874130 108.407768,98.967514 110.653809,99.029175 
	C110.337128,100.427437 109.676559,101.857422 109.008163,103.644531 
	C108.532860,104.318108 108.065392,104.634544 107.086464,104.856277 
	C106.305824,104.565834 106.114265,104.311615 106.000305,103.998901 
z"/>
<path fill="#EEA73C" opacity="1.000000" stroke="none" 
	d="
M105.623550,103.997940 
	C106.114265,104.311615 106.305824,104.565834 106.788864,104.873810 
	C106.293190,105.761932 105.583649,106.537819 104.874107,107.313705 
	C104.265144,106.421806 103.656181,105.529907 103.016022,104.308243 
	C103.738815,103.984642 104.492813,103.990814 105.623550,103.997940 
z"/>
<path fill="#FAC363" opacity="1.000000" stroke="none" 
	d="
M111.223480,97.893906 
	C111.098053,97.675758 111.282341,97.412048 111.779564,97.106552 
	C111.898132,97.321663 111.711708,97.582855 111.223480,97.893906 
z"/>
<path fill="#E0942F" opacity="1.000000" stroke="none" 
	d="
M110.573532,126.996010 
	C110.477219,127.602058 110.073723,128.273666 109.349548,128.986450 
	C109.441360,128.372284 109.853859,127.716927 110.573532,126.996010 
z"/>
<path fill="#B27E4A" opacity="1.000000" stroke="none" 
	d="
M79.056107,139.801071 
	C76.962746,139.876907 74.869392,139.952728 72.355232,139.534515 
	C71.717224,136.919769 71.500015,134.799072 71.619713,132.729660 
	C72.638809,132.847458 73.320999,132.913956 74.075821,133.364029 
	C78.043022,136.424789 81.511963,134.620850 85.152863,132.705383 
	C85.334068,132.691193 85.695114,132.733612 85.863602,132.985901 
	C86.314102,133.520737 86.596115,133.803284 86.876572,134.397400 
	C86.838280,135.121719 86.801552,135.534485 86.387817,136.015869 
	C84.459587,136.387787 82.780685,136.424103 81.400169,137.084351 
	C80.411789,137.557053 79.823112,138.865509 79.056107,139.801071 
z"/>
<path fill="#975C24" opacity="1.000000" stroke="none" 
	d="
M71.282806,132.678360 
	C71.500015,134.799072 71.717224,136.919769 71.925148,139.396439 
	C71.488754,139.833832 71.061646,139.915253 70.057938,139.684052 
	C67.984802,139.253189 66.488266,139.134979 64.991722,139.016769 
	C64.960548,138.592285 64.929375,138.167786 64.929718,137.036575 
	C64.972839,135.553436 64.984436,134.777023 64.996033,134.000610 
	C66.751427,133.328186 68.506805,132.655777 70.725449,132.150330 
	C71.188713,132.317307 71.282806,132.678360 71.282806,132.678360 
z"/>
<path fill="#A76524" opacity="1.000000" stroke="none" 
	d="
M79.413345,139.901413 
	C79.823112,138.865509 80.411789,137.557053 81.400169,137.084351 
	C82.780685,136.424103 84.459587,136.387787 86.683807,136.045532 
	C87.553055,136.016708 87.749298,136.026825 87.955650,136.409851 
	C87.972855,137.530945 87.979958,138.279099 87.989532,139.349152 
	C88.001266,140.100174 88.010544,140.529297 88.019829,140.958405 
	C86.960136,140.881943 85.900444,140.805466 84.381989,140.336868 
	C83.278862,139.975967 82.634499,140.007187 81.990143,140.038406 
	C81.250290,140.026184 80.510429,140.013977 79.413345,139.901413 
z"/>
<path fill="#B27E4A" opacity="1.000000" stroke="none" 
	d="
M64.994476,139.004868 
	C66.488266,139.134979 67.984802,139.253189 69.732056,139.643311 
	C67.914169,140.357666 65.845558,140.800125 63.348953,141.218414 
	C63.114075,140.878708 63.307198,140.563141 63.967766,140.012939 
	C64.722214,139.586716 64.902405,139.322342 64.975792,138.985153 
	C64.975792,138.985153 64.997238,138.992966 64.994476,139.004868 
z"/>
<path fill="#B3610A" opacity="1.000000" stroke="none" 
	d="
M88.274384,141.020355 
	C88.010544,140.529297 88.001266,140.100174 88.273788,139.221756 
	C89.098907,138.456741 89.642220,138.141037 90.185532,137.825333 
	C90.459633,138.615341 90.733734,139.405334 90.987854,140.522400 
	C90.154884,140.927048 89.341911,141.004669 88.274384,141.020355 
z"/>
<path fill="#B27E4A" opacity="1.000000" stroke="none" 
	d="
M82.192627,140.260300 
	C82.634499,140.007187 83.278862,139.975967 84.012039,140.180817 
	C83.532280,140.438644 82.963692,140.460419 82.192627,140.260300 
z"/>
<path fill="#BF690B" opacity="1.000000" stroke="none" 
	d="
M64.835464,133.688522 
	C64.984436,134.777023 64.972839,135.553436 64.913452,136.717743 
	C61.196659,136.069733 57.527641,135.033813 53.447090,133.985077 
	C52.943962,132.480804 52.852367,130.989349 52.701881,128.538925 
	C53.143311,128.424805 54.843121,127.985382 56.780277,127.279648 
	C60.365448,127.274162 60.023849,124.921829 60.008652,122.389450 
	C62.222843,123.442062 64.025017,124.699608 61.656544,127.835388 
	C61.133728,128.527588 63.590275,131.470123 64.835464,133.688522 
z"/>
<path fill="#BF690B" opacity="1.000000" stroke="none" 
	d="
M64.760788,139.092499 
	C64.902405,139.322342 64.722214,139.586716 64.208611,139.871307 
	C64.093544,139.653168 64.281471,139.398346 64.760788,139.092499 
z"/>
<path fill="#B3610A" opacity="1.000000" stroke="none" 
	d="
M87.945549,136.036926 
	C87.749298,136.026825 87.553055,136.016708 87.060814,135.976898 
	C86.801552,135.534485 86.838280,135.121719 86.945572,134.048309 
	C86.856544,131.558289 91.369461,128.378235 85.371918,128.151749 
	C85.228745,128.108383 85.029762,127.884933 84.968353,127.530556 
	C83.607567,125.786934 82.308205,124.397697 81.008842,123.008453 
	C81.715416,120.656693 82.421982,118.304924 83.391647,115.399704 
	C84.097603,114.221054 84.540459,113.595871 84.983315,112.970688 
	C86.892632,112.191162 88.801949,111.411652 91.243126,110.316353 
	C92.517792,109.999367 93.260605,109.998154 93.995316,110.400177 
	C93.218849,113.993904 93.284439,117.381126 89.665688,119.471077 
	C88.688385,120.035515 88.606056,124.899406 89.372253,125.284554 
	C94.175804,127.699165 93.625351,131.054459 91.968582,134.929794 
	C91.557396,134.966309 91.146210,135.002823 90.104935,135.050354 
	C88.965080,135.386566 88.455315,135.711746 87.945549,136.036926 
z"/>
<path fill="#BF6B0C" opacity="1.000000" stroke="none" 
	d="
M92.338615,134.957306 
	C93.625351,131.054459 94.175804,127.699165 89.372253,125.284554 
	C88.606056,124.899406 88.688385,120.035515 89.665688,119.471077 
	C93.284439,117.381126 93.218849,113.993904 94.250626,110.390121 
	C94.684052,109.966057 94.854080,109.955284 95.024109,109.944511 
	C95.818268,110.225632 96.612419,110.506752 97.703781,110.905716 
	C97.948257,112.027321 98.297218,113.369148 97.780838,113.982727 
	C92.448822,120.318542 92.580292,123.539246 98.612717,128.794250 
	C98.400299,130.253845 98.190887,131.713837 97.725052,133.733078 
	C97.300110,134.856354 97.131607,135.420380 96.963104,135.984421 
	C95.544960,135.651215 94.126801,135.318008 92.338615,134.957306 
M91.443024,121.708420 
	C91.711823,121.991554 91.980614,122.274689 92.249397,122.557823 
	C92.365883,122.445465 92.590492,122.242531 92.583221,122.233856 
	C92.332932,121.935074 92.060699,121.654663 91.443024,121.708420 
z"/>
<path fill="#EC9A29" opacity="1.000000" stroke="none" 
	d="
M97.018555,136.345963 
	C97.131607,135.420380 97.300110,134.856354 97.709099,134.113190 
	C99.358833,133.950943 100.768074,133.967804 102.600159,133.983734 
	C103.344284,135.096512 103.665565,136.210236 103.982910,137.678650 
	C101.728401,137.325333 98.609840,141.137787 97.018555,136.345963 
z"/>
<path fill="#BF6B0C" opacity="1.000000" stroke="none" 
	d="
M87.955650,136.409851 
	C88.455315,135.711746 88.965080,135.386566 89.795822,135.067841 
	C90.111908,135.764709 90.107010,136.455093 90.143829,137.485413 
	C89.642220,138.141037 89.098907,138.456741 88.271332,138.899841 
	C87.979958,138.279099 87.972855,137.530945 87.955650,136.409851 
z"/>
<path fill="#D7861C" opacity="1.000000" stroke="none" 
	d="
M90.968422,93.609688 
	C89.907585,93.995338 88.770340,94.029823 86.906647,94.029175 
	C83.949875,92.538727 81.719536,91.083397 79.489197,89.628067 
	C79.485870,88.985352 79.482544,88.342628 79.479225,87.699913 
	C77.664398,89.302010 75.849579,90.904106 74.101082,92.447655 
	C73.159622,91.546806 71.888908,90.330917 70.618195,89.115028 
	C69.745445,90.412247 68.872704,91.709457 67.999954,93.006676 
	C65.373108,92.357735 62.826214,90.891388 61.658276,95.407310 
	C61.235062,97.043694 58.042568,97.963867 56.042839,99.561440 
	C55.228321,99.936508 54.484638,99.960983 53.368782,100.001144 
	C53.003578,99.269745 53.010555,98.522652 53.045166,97.403961 
	C55.249912,95.832497 57.427025,94.632629 59.604134,93.432762 
	C59.498463,93.044197 59.392792,92.655632 59.287121,92.267067 
	C57.771633,92.152855 56.256142,92.038635 54.545494,91.583466 
	C56.468044,90.507591 58.557518,89.279129 60.710228,89.155975 
	C63.771347,88.980843 64.228271,87.453903 63.982166,85.022079 
	C64.279381,84.900063 64.529930,84.714912 65.050369,84.053856 
	C67.037476,84.286232 68.729294,85.509766 70.373924,85.449326 
	C73.293045,85.342056 76.183525,84.455872 79.421295,83.875717 
	C80.843796,83.580635 81.930984,83.305389 83.018387,83.408577 
	C82.923256,87.573280 85.004875,87.997025 87.998955,87.011368 
	C88.795006,87.257820 89.591057,87.504272 91.009438,87.874390 
	C92.465965,88.042854 93.300163,88.087654 94.413109,88.147423 
	C93.736305,89.043457 93.369453,89.529160 93.002594,90.014847 
	C90.550880,89.717003 88.099167,89.419151 85.647453,89.121307 
	C85.581184,89.398346 85.514908,89.675385 85.448639,89.952431 
	C87.263100,91.054459 89.077553,92.156487 90.968422,93.609688 
z"/>
<path fill="#CA7610" opacity="1.000000" stroke="none" 
	d="
M79.085991,83.895569 
	C76.183525,84.455872 73.293045,85.342056 70.373924,85.449326 
	C68.729294,85.509766 67.037476,84.286232 65.171219,83.851677 
	C64.254181,84.012939 63.532856,83.963631 62.425053,83.512436 
	C62.010994,82.091553 61.983414,81.072556 62.302788,80.182831 
	C68.477791,83.069839 69.486969,82.870567 70.575844,78.774918 
	C68.382431,77.846527 66.193222,76.919922 64.058792,75.656853 
	C66.079781,75.215576 68.045990,75.110756 70.083664,75.378136 
	C72.435135,76.491760 74.715134,77.233185 76.999474,78.339096 
	C77.697868,80.434258 78.391930,82.164909 79.085991,83.895569 
z"/>
<path fill="#C46E0B" opacity="1.000000" stroke="none" 
	d="
M70.012207,75.005936 
	C68.045990,75.110756 66.079781,75.215576 63.713715,75.511307 
	C61.062584,74.926048 58.849888,73.963928 56.537132,73.484062 
	C55.818836,73.335022 54.829185,74.493805 53.963760,75.053856 
	C52.572212,74.717117 51.180664,74.380386 49.416458,73.607742 
	C49.065418,72.158646 49.087032,71.145462 49.489048,70.116257 
	C51.903141,70.374840 53.936836,70.649429 56.367802,70.945145 
	C58.843353,70.643738 60.921638,70.321205 63.218010,70.275818 
	C65.254814,71.023911 67.073532,71.494843 69.159836,72.138458 
	C69.631546,72.898567 69.835670,73.486000 70.036476,74.306671 
	C70.033150,74.539902 70.012207,75.005943 70.012207,75.005936 
z"/>
<path fill="#B55C02" opacity="1.000000" stroke="none" 
	d="
M54.076775,75.301651 
	C54.829185,74.493805 55.818836,73.335022 56.537132,73.484062 
	C58.849888,73.963928 61.062584,74.926048 63.658943,75.847763 
	C66.193222,76.919922 68.382431,77.846527 70.575844,78.774918 
	C69.486969,82.870567 68.477791,83.069839 61.952030,80.123871 
	C59.182098,78.939049 57.109871,77.942451 55.037643,76.945862 
	C54.755024,76.480392 54.472404,76.014915 54.076775,75.301651 
z"/>
<path fill="#DB891D" opacity="1.000000" stroke="none" 
	d="
M51.994560,88.998230 
	C49.671402,88.007294 47.380486,86.928909 45.013649,86.056488 
	C43.461544,85.484383 41.799679,85.210052 40.113792,84.420197 
	C45.200428,81.509819 50.247375,80.506905 54.832279,85.788544 
	C53.856167,87.293518 52.925365,88.145874 51.994560,88.998230 
z"/>
<path fill="#C26A07" opacity="1.000000" stroke="none" 
	d="
M51.775520,89.113892 
	C52.925365,88.145874 53.856167,87.293518 54.909241,86.136932 
	C57.769390,85.671082 60.507271,85.509460 63.613659,85.184952 
	C64.228271,87.453903 63.771347,88.980843 60.710228,89.155975 
	C58.557518,89.279129 56.468044,90.507591 54.153126,91.546371 
	C53.525581,91.920639 53.095245,91.991035 52.342991,92.120041 
	C51.834427,91.565582 51.647781,90.952507 51.188698,90.159554 
	C51.075703,89.683563 51.289108,89.433525 51.775520,89.113892 
z"/>
<path fill="#E18B1E" opacity="1.000000" stroke="none" 
	d="
M55.054260,77.301788 
	C57.109871,77.942451 59.182098,78.939049 61.605080,79.994598 
	C61.983414,81.072556 62.010994,82.091553 62.063850,83.489166 
	C59.749710,81.797760 57.410297,79.727737 55.054260,77.301788 
z"/>
<path fill="#E18B1E" opacity="1.000000" stroke="none" 
	d="
M49.108650,70.132271 
	C49.087032,71.145462 49.065418,72.158646 49.060211,73.549683 
	C47.477119,72.817093 45.877613,71.706673 44.138824,70.297974 
	C45.056770,69.989464 46.113998,69.979225 47.855045,69.997818 
	C48.728794,70.061859 48.918720,70.097069 49.108650,70.132271 
z"/>
<path fill="#F8B344" opacity="1.000000" stroke="none" 
	d="
M60.001808,61.012779 
	C61.755848,61.915508 64.027634,62.548561 61.692711,65.621201 
	C60.121075,65.986855 59.091045,66.030273 57.689163,66.090195 
	C55.211636,66.067719 53.105972,66.028755 51.000305,65.989792 
	C51.000206,65.242386 51.000111,64.494972 51.408661,63.372417 
	C54.222260,62.357300 56.627220,61.717335 59.274544,61.060627 
	C59.516911,61.043888 60.001808,61.012779 60.001808,61.012779 
z"/>
<path fill="#F1A535" opacity="1.000000" stroke="none" 
	d="
M59.032177,61.077370 
	C56.627220,61.717335 54.222260,62.357300 51.408577,62.998711 
	C50.021683,62.848106 49.043522,62.696060 48.031212,62.231270 
	C48.332382,60.851910 48.667698,59.785297 49.013283,58.377052 
	C50.404736,58.014263 51.785915,57.993099 53.784164,58.235531 
	C55.944881,59.358543 57.488529,60.217957 59.032177,61.077370 
z"/>
<path fill="#EDA230" opacity="1.000000" stroke="none" 
	d="
M50.706360,66.136414 
	C53.105972,66.028755 55.211636,66.067719 57.669266,66.431633 
	C57.337662,68.145737 56.654099,69.534882 55.970535,70.924026 
	C53.936836,70.649429 51.903141,70.374840 49.489048,70.116257 
	C48.918720,70.097069 48.728794,70.061859 48.251373,69.987022 
	C48.780056,68.725945 49.596233,67.504486 50.706360,66.136414 
z"/>
<path fill="#E9A036" opacity="1.000000" stroke="none" 
	d="
M67.996719,93.261398 
	C68.872704,91.709457 69.745445,90.412247 70.618195,89.115028 
	C71.888908,90.330917 73.159622,91.546806 74.101082,92.447655 
	C75.849579,90.904106 77.664398,89.302010 79.479225,87.699913 
	C79.482544,88.342628 79.485870,88.985352 79.489197,89.628067 
	C81.719536,91.083397 83.949875,92.538727 86.580421,94.006149 
	C86.989151,94.762032 86.997673,95.505829 86.749008,96.625694 
	C86.318642,97.005112 86.145470,97.008453 85.972290,97.011795 
	C83.350883,96.170525 80.729477,95.329262 77.501450,94.293320 
	C77.501450,96.739319 77.501450,98.081955 77.501450,100.838860 
	C75.520905,98.463348 74.302643,97.002144 73.084381,95.540939 
	C72.958733,95.863953 72.833084,96.186958 72.707436,96.509964 
	C71.223480,95.880409 69.739525,95.250854 68.117668,94.323364 
	C67.984337,93.855659 67.988914,93.685890 67.996719,93.261398 
z"/>
<path fill="#EEAA42" opacity="1.000000" stroke="none" 
	d="
M84.978661,112.578644 
	C84.540459,113.595871 84.097603,114.221054 83.418251,115.013077 
	C82.070244,115.122810 80.958748,115.065720 79.432938,115.014160 
	C79.014084,112.864288 78.620140,110.608490 79.140938,108.588547 
	C79.492126,107.226448 81.134186,106.197174 82.770065,105.246277 
	C84.239700,105.303123 85.138069,105.132713 86.036430,104.962311 
	C86.780563,104.965126 87.524704,104.967941 88.640938,104.953270 
	C88.467957,105.960030 87.940117,106.993919 87.373611,108.006180 
	C86.588974,109.408173 85.775269,110.793907 84.978661,112.578644 
z"/>
<path fill="#F0AB42" opacity="1.000000" stroke="none" 
	d="
M71.997284,112.999619 
	C70.731026,110.439079 69.464767,107.878532 68.198509,105.317993 
	C69.015762,104.901138 69.833023,104.484283 70.650276,104.067429 
	C71.761940,106.459953 72.873604,108.852478 73.731285,111.731079 
	C72.983963,112.477989 72.490623,112.738808 71.997284,112.999619 
z"/>
<path fill="#EEAA42" opacity="1.000000" stroke="none" 
	d="
M71.830856,113.243629 
	C72.490623,112.738808 72.983963,112.477989 73.735275,112.109833 
	C75.421295,113.000290 76.849358,113.998093 78.645889,115.006882 
	C76.612312,118.622147 73.586960,118.524399 70.051758,114.362335 
	C70.561188,113.825890 71.112808,113.656761 71.830856,113.243629 
z"/>
<path fill="#ECA338" opacity="1.000000" stroke="none" 
	d="
M86.024216,104.616379 
	C85.138069,105.132713 84.239700,105.303123 83.172775,105.238907 
	C83.891914,102.550461 84.779625,100.096657 85.819809,97.327316 
	C86.145470,97.008453 86.318642,97.005112 86.751740,96.997879 
	C87.166885,97.990791 87.583755,99.034035 87.416985,99.973679 
	C87.156235,101.442780 86.500443,102.841766 86.024216,104.616379 
z"/>
<path fill="#C47F2C" opacity="1.000000" stroke="none" 
	d="
M80.589043,123.005875 
	C82.308205,124.397697 83.607567,125.786934 84.508698,127.581711 
	C79.912903,128.470459 75.715347,128.953690 71.517784,129.436890 
	C70.388489,127.199982 69.259201,124.963081 68.086304,122.359947 
	C72.084885,122.330254 76.127068,122.666779 80.589043,123.005875 
z"/>
<path fill="#E6CAAB" opacity="1.000000" stroke="none" 
	d="
M71.469788,129.758423 
	C75.715347,128.953690 79.912903,128.470459 84.570114,127.936089 
	C85.029762,127.884933 85.228745,128.108383 85.362808,128.533051 
	C85.562958,130.216339 85.629036,131.474976 85.695114,132.733612 
	C85.695114,132.733612 85.334068,132.691193 84.836342,132.476715 
	C80.893471,132.501648 77.448334,132.741058 74.003189,132.980453 
	C73.320999,132.913956 72.638809,132.847458 71.619713,132.729660 
	C71.282806,132.678360 71.188713,132.317307 71.097885,132.154266 
	C71.145302,131.354126 71.283546,130.717041 71.469788,129.758423 
z"/>
<path fill="#B05405" opacity="1.000000" stroke="none" 
	d="
M63.016701,49.141628 
	C69.077339,46.701687 74.871750,46.169674 80.374344,50.776615 
	C81.190811,51.460186 83.225647,50.688534 84.851082,50.283695 
	C87.360626,50.000256 89.715897,50.023251 92.508797,50.066082 
	C91.965393,51.229427 90.984352,52.372932 89.624336,53.711449 
	C86.333984,52.017811 84.645981,53.679264 83.183571,55.995361 
	C81.363770,56.294830 79.543961,56.594296 77.387482,56.568382 
	C76.547852,54.618546 76.314995,51.785793 75.490105,51.601391 
	C73.223724,51.094746 70.708900,51.699421 68.292397,51.864315 
	C68.393478,52.162834 68.494568,52.461353 68.595657,52.759876 
	C66.736000,51.553795 64.876350,50.347710 63.016701,49.141628 
z"/>
<path fill="#EF951B" opacity="1.000000" stroke="none" 
	d="
M77.001221,40.310894 
	C77.775986,39.665745 78.552231,39.335865 79.666832,39.007122 
	C79.211960,40.105446 78.418724,41.202629 77.625488,42.299812 
	C77.417885,41.741932 77.210289,41.184048 77.001221,40.310894 
z"/>
<path fill="#8D3A02" opacity="1.000000" stroke="none" 
	d="
M62.721653,49.263542 
	C64.876350,50.347710 66.736000,51.553795 68.595657,52.759876 
	C68.494568,52.461353 68.393478,52.162834 68.292397,51.864315 
	C70.708900,51.699421 73.223724,51.094746 75.490105,51.601391 
	C76.314995,51.785793 76.547852,54.618546 76.992508,56.583649 
	C75.906815,56.911812 74.879417,56.899330 73.275894,56.578892 
	C70.990768,56.212040 69.281761,56.153141 67.267212,56.062958 
	C65.302155,55.344837 63.642651,54.658005 61.983147,53.971169 
	C62.130966,52.442600 62.278786,50.914028 62.721653,49.263542 
z"/>
<path fill="#2C1B0F" opacity="1.000000" stroke="none" 
	d="
M78.008667,62.157188 
	C78.870338,63.238129 79.347977,64.289368 79.601509,65.806259 
	C79.142014,66.829124 78.906624,67.386345 78.353096,68.004814 
	C77.324509,69.302773 76.614052,70.539482 75.666382,72.189125 
	C73.522781,69.581062 72.429710,68.251160 71.116150,66.656075 
	C70.305771,65.355927 69.715874,64.320953 69.474899,63.221260 
	C70.868652,62.625141 71.913475,62.093746 72.958298,61.562351 
	C74.513741,61.750732 76.069191,61.939110 78.008667,62.157188 
z"/>
<path fill="#391E10" opacity="1.000000" stroke="none" 
	d="
M83.226791,56.335007 
	C84.645981,53.679264 86.333984,52.017811 89.560272,54.062141 
	C90.189339,55.208420 90.503479,56.199009 90.818069,57.508690 
	C90.818512,57.827782 90.684608,58.167171 90.481415,58.534760 
	C90.157455,59.267719 90.036697,59.633083 89.915939,59.998451 
	C89.915939,59.998451 89.634422,60.363071 89.527206,60.567009 
	C85.984138,61.486168 84.421028,59.389755 83.226791,56.335007 
z"/>
<path fill="#E0942F" opacity="1.000000" stroke="none" 
	d="
M69.125977,63.285984 
	C69.715874,64.320953 70.305771,65.355927 70.923561,66.955414 
	C70.265045,69.001877 69.578644,70.483826 68.892242,71.965775 
	C67.073532,71.494843 65.254814,71.023911 63.109997,70.012794 
	C62.527390,68.965897 62.270889,68.459190 62.014393,67.952477 
	C62.450081,67.950867 62.885769,67.949257 63.801392,68.171844 
	C64.685371,68.410263 65.089409,68.424492 65.493454,68.438728 
	C65.313332,67.951286 65.133209,67.463844 64.953087,66.976402 
	C64.953087,66.976402 64.974228,66.497955 65.295486,66.252625 
	C66.174377,65.849281 66.732018,65.691261 67.289650,65.533241 
	C66.823654,65.007584 66.357666,64.481926 65.891678,63.956268 
	C66.391258,63.367142 66.890839,62.778011 67.912399,62.214737 
	C68.664909,62.589054 68.895439,62.937519 69.125977,63.285984 
z"/>
<path fill="#E18B1E" opacity="1.000000" stroke="none" 
	d="
M59.274544,61.060631 
	C57.488529,60.217957 55.944881,59.358543 54.199135,58.240135 
	C56.109882,57.328518 58.222721,56.675888 61.009636,56.030041 
	C61.846783,57.010418 62.009861,57.984005 62.172935,58.957596 
	C61.485657,59.419563 60.798382,59.881531 60.056458,60.678139 
	C60.001808,61.012779 59.516911,61.043888 59.274544,61.060631 
z"/>
<path fill="#E18B1E" opacity="1.000000" stroke="none" 
	d="
M62.010880,67.609344 
	C62.270889,68.459190 62.527390,68.965897 62.891907,69.735641 
	C60.921638,70.321205 58.843353,70.643738 56.367805,70.945145 
	C56.654099,69.534882 57.337662,68.145737 58.041122,66.415146 
	C59.091045,66.030273 60.121075,65.986855 61.535706,65.917435 
	C61.949329,66.349693 61.978348,66.807953 62.010880,67.609344 
z"/>
<path fill="#1B0D07" opacity="1.000000" stroke="none" 
	d="
M62.452972,59.064770 
	C62.009861,57.984005 61.846783,57.010418 61.362122,56.003563 
	C61.275219,55.474693 61.509899,54.979092 61.863861,54.227333 
	C63.642651,54.658005 65.302155,55.344837 67.313751,56.282864 
	C67.665840,56.534054 67.835747,56.948872 67.835747,56.948868 
	C66.134834,57.689892 64.433922,58.430920 62.452972,59.064770 
z"/>
<path fill="#E18B1E" opacity="1.000000" stroke="none" 
	d="
M69.474899,63.221260 
	C68.895439,62.937519 68.664909,62.589054 68.166107,62.068153 
	C69.542099,60.574623 71.186356,59.253521 72.830620,57.932419 
	C73.135483,58.238239 73.440353,58.544056 73.745216,58.849873 
	C73.511200,59.559544 73.277184,60.269215 73.000732,61.270618 
	C71.913475,62.093746 70.868652,62.625141 69.474899,63.221260 
z"/>
<path fill="#B05405" opacity="1.000000" stroke="none" 
	d="
M68.274658,56.976753 
	C67.835747,56.948872 67.665840,56.534054 67.619301,56.314148 
	C69.281761,56.153141 70.990768,56.212040 72.890381,56.548943 
	C71.625191,56.886173 70.169373,56.945404 68.274658,56.976753 
z"/>
<path fill="#E18B1E" opacity="1.000000" stroke="none" 
	d="
M65.664841,64.144363 
	C66.357666,64.481926 66.823654,65.007584 67.289650,65.533241 
	C66.732018,65.691261 66.174377,65.849281 65.313416,66.013840 
	C65.152733,65.457741 65.295372,64.895103 65.664841,64.144363 
z"/>
<path fill="#E18B1E" opacity="1.000000" stroke="none" 
	d="
M64.745834,67.087410 
	C65.133209,67.463844 65.313332,67.951286 65.493454,68.438728 
	C65.089409,68.424492 64.685371,68.410263 64.128136,68.167068 
	C64.091805,67.637421 64.279686,67.390862 64.745834,67.087410 
z"/>
<path fill="#B55C02" opacity="1.000000" stroke="none" 
	d="
M79.421295,83.875717 
	C78.391930,82.164909 77.697868,80.434258 77.411133,78.340881 
	C80.564400,77.331833 83.310333,76.685501 86.056267,76.039154 
	C87.602165,75.552025 89.148064,75.064896 90.854843,74.249649 
	C91.460670,73.922981 91.905609,73.924446 92.681366,74.308128 
	C93.017601,75.471016 93.023026,76.251694 92.801506,77.061241 
	C92.574562,77.090118 92.118881,77.131432 91.788315,77.121643 
	C90.956200,77.718842 90.454651,78.325829 89.612350,79.001953 
	C87.187126,80.390778 85.102654,81.710464 83.018181,83.030151 
	C81.930984,83.305389 80.843796,83.580635 79.421295,83.875717 
z"/>
<path fill="#874E16" opacity="1.000000" stroke="none" 
	d="
M69.159836,72.138458 
	C69.578644,70.483826 70.265045,69.001877 71.144043,67.220596 
	C72.429710,68.251160 73.522781,69.581062 75.666382,72.189125 
	C76.614052,70.539482 77.324509,69.302773 78.652832,68.029633 
	C79.470360,68.000862 79.670021,68.008522 79.869690,68.016182 
	C79.921494,68.447510 79.973297,68.878830 80.082542,69.630737 
	C80.633858,71.134132 81.127731,72.316940 81.349785,73.758957 
	C77.398575,74.036583 73.719193,74.055008 70.039803,74.073433 
	C69.835670,73.486000 69.631546,72.898567 69.159836,72.138458 
z"/>
<path fill="#DB891D" opacity="1.000000" stroke="none" 
	d="
M70.036476,74.306671 
	C73.719193,74.055008 77.398575,74.036583 81.537796,74.048264 
	C83.207619,74.554771 84.417610,75.031166 85.841934,75.773361 
	C83.310333,76.685501 80.564400,77.331833 77.406799,77.976387 
	C74.715134,77.233185 72.435135,76.491760 70.083664,75.378143 
	C70.012207,75.005943 70.033150,74.539902 70.036476,74.306671 
z"/>
<path fill="#CA7714" opacity="1.000000" stroke="none" 
	d="
M80.118820,67.886856 
	C79.670021,68.008522 79.470360,68.000862 78.970963,67.968391 
	C78.906624,67.386345 79.142014,66.829124 79.656982,66.152832 
	C80.080360,66.608345 80.224159,67.182938 80.118820,67.886856 
z"/>
<path fill="#CA7714" opacity="1.000000" stroke="none" 
	d="
M93.028450,77.032364 
	C93.023026,76.251694 93.017601,75.471016 93.015152,74.297791 
	C94.662827,73.953148 96.307518,74.001068 97.952225,74.048996 
	C97.732277,74.544090 97.512337,75.039185 97.153923,75.784447 
	C96.219025,76.211914 95.422600,76.389206 94.137604,76.804710 
	C93.442169,77.039406 93.235306,77.035881 93.028450,77.032364 
z"/>
<path fill="#CE7514" opacity="1.000000" stroke="none" 
	d="
M90.171265,59.834175 
	C90.036697,59.633083 90.157455,59.267719 90.506149,58.715500 
	C90.631584,58.909065 90.529083,59.289482 90.171265,59.834175 
z"/>
<path fill="#DD8B1D" opacity="1.000000" stroke="none" 
	d="
M93.424721,90.009323 
	C93.369453,89.529160 93.736305,89.043457 94.413109,88.147423 
	C93.300163,88.087654 92.465965,88.042854 91.304939,87.994003 
	C94.415512,83.036407 97.737289,82.542709 104.606812,86.045883 
	C105.739311,86.401978 106.515167,86.729599 107.621674,87.091682 
	C107.644341,87.661369 107.387405,88.622948 107.020592,88.666870 
	C102.638802,89.191521 98.240685,89.579811 93.424721,90.009323 
z"/>
<path fill="#E5992F" opacity="1.000000" stroke="none" 
	d="
M92.801506,77.061241 
	C93.235306,77.035881 93.442169,77.039406 93.961487,77.055618 
	C92.443886,79.355637 90.570366,81.610283 88.810524,83.950432 
	C88.290237,84.642296 88.090691,85.575356 87.871552,86.704628 
	C85.004875,87.997025 82.923256,87.573280 83.018387,83.408585 
	C85.102654,81.710464 87.187126,80.390778 89.931976,78.987885 
	C91.101189,78.313591 91.610031,77.722511 92.118881,77.131432 
	C92.118881,77.131432 92.574562,77.090118 92.801506,77.061241 
z"/>
<path fill="#D5841D" opacity="1.000000" stroke="none" 
	d="
M94.997269,109.685837 
	C94.854080,109.955284 94.684052,109.966057 94.258720,109.986877 
	C93.260605,109.998154 92.517792,109.999367 91.404434,110.006104 
	C91.011124,109.376045 90.988358,108.740471 90.965591,108.104889 
	C92.300537,108.545647 93.635483,108.986404 94.997269,109.685837 
z"/>
<path fill="#CEA578" opacity="1.000000" stroke="none" 
	d="
M74.075821,133.364029 
	C77.448334,132.741058 80.893471,132.501648 84.655136,132.490906 
	C81.511963,134.620850 78.043022,136.424789 74.075821,133.364029 
z"/>
<path fill="#A76524" opacity="1.000000" stroke="none" 
	d="
M85.863602,132.985901 
	C85.629036,131.474976 85.562958,130.216339 85.505981,128.576416 
	C91.369461,128.378235 86.856544,131.558289 86.947121,133.736725 
	C86.596115,133.803284 86.314102,133.520737 85.863602,132.985901 
z"/>
<path fill="#D5841D" opacity="1.000000" stroke="none" 
	d="
M91.617317,121.540024 
	C92.060699,121.654663 92.332932,121.935074 92.583221,122.233856 
	C92.590492,122.242531 92.365883,122.445465 92.249405,122.557831 
	C91.980614,122.274689 91.711823,121.991554 91.617317,121.540024 
z"/>
<path fill="#CA7714" opacity="1.000000" stroke="none" 
	d="
M91.788315,77.121643 
	C91.610031,77.722511 91.101189,78.313591 90.272720,78.918747 
	C90.454651,78.325829 90.956200,77.718842 91.788315,77.121643 
z"/>
</svg>